ISO-10303-21;
HEADER;
FILE_DESCRIPTION (( 'STEP AP214' ),
    '1' );
FILE_NAME ('User Library-SOD-323.STEP',
    '2019-05-22T02:01:01',
    ( '' ),
    ( '' ),
    'SwSTEP 2.0',
    'SolidWorks 2019',
    '' );
FILE_SCHEMA (( 'AUTOMOTIVE_DESIGN' ));
ENDSEC;

DATA;
#1 = CARTESIAN_POINT ( 'NONE',  ( 0.0000000000000000000, 0.1750000000000000167, 0.0000000000000000000 ) ) ;
#2 = ORIENTED_EDGE ( 'NONE', *, *, #848, .F. ) ;
#3 = LINE ( 'NONE', #381, #96 ) ;
#4 = CARTESIAN_POINT ( 'NONE',  ( 1.300000000000000266, 0.1750000000000000167, 0.0000000000000000000 ) ) ;
#5 = CARTESIAN_POINT ( 'NONE',  ( -1.237430683999999781, -0.1750000000000000167, 0.1700000000000000122 ) ) ;
#6 = DIRECTION ( 'NONE',  ( -0.0000000000000000000, -1.000000000000000000, 0.0000000000000000000 ) ) ;
#7 =( NAMED_UNIT ( * ) PLANE_ANGLE_UNIT ( ) SI_UNIT ( $, .RADIAN. ) );
#8 = ORIENTED_EDGE ( 'NONE', *, *, #796, .T. ) ;
#9 = DIRECTION ( 'NONE',  ( 0.0000000000000000000, -1.000000000000000000, -0.0000000000000000000 ) ) ;
#10 = ORIENTED_EDGE ( 'NONE', *, *, #685, .T. ) ;
#11 = SURFACE_STYLE_USAGE ( .BOTH. , #296 ) ;
#12 = DIRECTION ( 'NONE',  ( -0.1643989873053573469, 0.0000000000000000000, 0.9863939238321436376 ) ) ;
#13 = ADVANCED_FACE ( 'NONE', ( #109 ), #482, .T. ) ;
#14 = LINE ( 'NONE', #121, #1128 ) ;
#15 = EDGE_LOOP ( 'NONE', ( #565, #143, #612, #993 ) ) ;
#16 = LINE ( 'NONE', #1034, #53 ) ;
#17 = ORIENTED_EDGE ( 'NONE', *, *, #939, .T. ) ;
#18 = CARTESIAN_POINT ( 'NONE',  ( 0.9595752918854051350, -0.1750000000000000167, 0.6553153044776600655 ) ) ;
#19 = CARTESIAN_POINT ( 'NONE',  ( 0.0000000000000000000, 0.1750000000000000167, 0.0000000000000000000 ) ) ;
#20 = VECTOR ( 'NONE', #237, 1000.000000000000000 ) ;
#21 = EDGE_CURVE ( 'NONE', #777, #521, #962, .T. ) ;
#22 = ORIENTED_EDGE ( 'NONE', *, *, #1002, .F. ) ;
#23 = DIRECTION ( 'NONE',  ( 0.0000000000000000000, 1.000000000000000000, 0.0000000000000000000 ) ) ;
#24 = DIRECTION ( 'NONE',  ( 0.2095290893580920577, 0.0000000000000000000, 0.9778024139430054884 ) ) ;
#25 = VERTEX_POINT ( 'NONE', #89 ) ;
#26 = CARTESIAN_POINT ( 'NONE',  ( -0.8799669973016659430, -0.1750000000000000167, 0.7801320124920698706 ) ) ;
#27 = CARTESIAN_POINT ( 'NONE',  ( 0.0000000000000000000, 0.0000000000000000000, 0.0000000000000000000 ) ) ;
#28 = CARTESIAN_POINT ( 'NONE',  ( 0.8799669973016659430, -0.1750000000000000167, 0.7801320124920698706 ) ) ;
#29 = DIRECTION ( 'NONE',  ( -1.000000000000000000, -0.0000000000000000000, 0.0000000000000000000 ) ) ;
#30 = ADVANCED_FACE ( 'NONE', ( #204 ), #387, .T. ) ;
#31 = PLANE ( 'NONE',  #1089 ) ;
#32 = ORIENTED_EDGE ( 'NONE', *, *, #718, .T. ) ;
#33 = DIRECTION ( 'NONE',  ( 1.000000000000000000, 0.0000000000000000000, -0.0000000000000000000 ) ) ;
#34 = EDGE_CURVE ( 'NONE', #488, #25, #93, .T. ) ;
#35 = CARTESIAN_POINT ( 'NONE',  ( -1.169043606278566072, 0.0000000000000000000, 0.2505093441598505444 ) ) ;
#36 = AXIS2_PLACEMENT_3D ( 'NONE', #357, #1115, #444 ) ;
#37 = MECHANICAL_DESIGN_GEOMETRIC_PRESENTATION_REPRESENTATION (  '', ( #1067 ), #297 ) ;
#38 = ORIENTED_EDGE ( 'NONE', *, *, #308, .F. ) ;
#39 =( GEOMETRIC_REPRESENTATION_CONTEXT ( 3 ) GLOBAL_UNCERTAINTY_ASSIGNED_CONTEXT ( ( #160 ) ) GLOBAL_UNIT_ASSIGNED_CONTEXT ( ( #1121, #263, #1021 ) ) REPRESENTATION_CONTEXT ( 'NONE', 'WORKASPACE' ) );
#40 = VECTOR ( 'NONE', #607, 1000.000000000000000 ) ;
#41 = LINE ( 'NONE', #412, #886 ) ;
#42 = ORIENTED_EDGE ( 'NONE', *, *, #317, .T. ) ;
#43 = CARTESIAN_POINT ( 'NONE',  ( 1.300000000000000266, 0.1750000000000000167, 0.0000000000000000000 ) ) ;
#44 = CARTESIAN_POINT ( 'NONE',  ( 0.8996143177401632052, 0.1750000000000000167, 0.6976859052558950225 ) ) ;
#45 = ORIENTED_EDGE ( 'NONE', *, *, #1176, .F. ) ;
#46 = DIRECTION ( 'NONE',  ( -0.9701425001512142821, 0.0000000000000000000, 0.2425356250128035962 ) ) ;
#47 = SURFACE_SIDE_STYLE ('',( #861 ) ) ;
#48 = EDGE_CURVE ( 'NONE', #867, #411, #940, .T. ) ;
#49 = CARTESIAN_POINT ( 'NONE',  ( 1.083061337584259487, -0.1750000000000000167, 0.07904709106287707843 ) ) ;
#50 = VERTEX_POINT ( 'NONE', #744 ) ;
#51 = DIRECTION ( 'NONE',  ( 0.0000000000000000000, -0.0000000000000000000, 1.000000000000000000 ) ) ;
#52 = DIRECTION ( 'NONE',  ( -0.2095290895954797228, 0.0000000000000000000, 0.9778024138921366237 ) ) ;
#53 = VECTOR ( 'NONE', #471, 1000.000000000000000 ) ;
#54 = EDGE_LOOP ( 'NONE', ( #996, #1101, #895, #809 ) ) ;
#55 = MECHANICAL_DESIGN_GEOMETRIC_PRESENTATION_REPRESENTATION (  '', ( #967 ), #632 ) ;
#56 = EDGE_CURVE ( 'NONE', #815, #844, #722, .T. ) ;
#57 = FILL_AREA_STYLE ('',( #431 ) ) ;
#58 = ORIENTED_EDGE ( 'NONE', *, *, #582, .T. ) ;
#59 = LINE ( 'NONE', #375, #688 ) ;
#60 = VECTOR ( 'NONE', #1085, 1000.000000000000000 ) ;
#61 = CARTESIAN_POINT ( 'NONE',  ( -0.9000000002958529199, 0.6750000000078826279, 0.7000000000521013899 ) ) ;
#62 = UNCERTAINTY_MEASURE_WITH_UNIT (LENGTH_MEASURE( 1.000000000000000082E-05 ), #912, 'distance_accuracy_value', 'NONE');
#63 = CARTESIAN_POINT ( 'NONE',  ( 1.300000000000000266, 0.0000000000000000000, 0.1200000000000000233 ) ) ;
#64 = VERTEX_POINT ( 'NONE', #869 ) ;
#65 = DIRECTION ( 'NONE',  ( -0.0000000000000000000, 0.0000000000000000000, -1.000000000000000000 ) ) ;
#66 = EDGE_CURVE ( 'NONE', #50, #924, #407, .T. ) ;
#67 = CARTESIAN_POINT ( 'NONE',  ( -1.237430683998515635, 0.1750000000000000167, 0.1200000001737807076 ) ) ;
#68 = VERTEX_POINT ( 'NONE', #189 ) ;
#69 = CARTESIAN_POINT ( 'NONE',  ( 1.188540563319543830, 0.0000000000000000000, 0.1595235454541878428 ) ) ;
#70 = CARTESIAN_POINT ( 'NONE',  ( -0.9669386624000001484, 0.0000000000000000000, 0.6209529088999999891 ) ) ;
#71 = EDGE_CURVE ( 'NONE', #356, #1106, #772, .T. ) ;
#72 = APPLICATION_CONTEXT ( 'automotive_design' ) ;
#73 = LINE ( 'NONE', #745, #1110 ) ;
#74 = ORIENTED_EDGE ( 'NONE', *, *, #1134, .T. ) ;
#75 = PLANE ( 'NONE',  #328 ) ;
#76 = VECTOR ( 'NONE', #1049, 1000.000000000000000 ) ;
#77 = CARTESIAN_POINT ( 'NONE',  ( -1.188540563823750285, 0.1750000000000000167, 0.1595235455912500100 ) ) ;
#78 = COLOUR_RGB ( '',0.3176470588235293935, 0.3176470588235293935, 0.3176470588235293935 ) ;
#79 = FACE_OUTER_BOUND ( 'NONE', #479, .T. ) ;
#80 = EDGE_CURVE ( 'NONE', #125, #1009, #847, .T. ) ;
#81 = CARTESIAN_POINT ( 'NONE',  ( -1.180841579000000197, 0.1750000000000000167, 1.996683119407163809E-10 ) ) ;
#82 = ORIENTED_EDGE ( 'NONE', *, *, #1113, .T. ) ;
#83 = DIRECTION ( 'NONE',  ( -0.0000000000000000000, -1.000000000000000000, -0.0000000000000000000 ) ) ;
#84 = CARTESIAN_POINT ( 'NONE',  ( 0.0000000000000000000, 0.0000000000000000000, 0.1000000000000000056 ) ) ;
#85 = DIRECTION ( 'NONE',  ( 0.0000000000000000000, 0.0000000000000000000, -1.000000000000000000 ) ) ;
#86 = ADVANCED_FACE ( 'NONE', ( #749 ), #393, .T. ) ;
#87 = ORIENTED_EDGE ( 'NONE', *, *, #34, .F. ) ;
#88 = LINE ( 'NONE', #280, #1199 ) ;
#89 = CARTESIAN_POINT ( 'NONE',  ( -1.084274952025500172, -0.1750000000000000167, 0.6460963995035000629 ) ) ;
#90 = CARTESIAN_POINT ( 'NONE',  ( 0.0000000000000000000, -0.1750000000000000167, 0.0000000000000000000 ) ) ;
#91 = ORIENTED_EDGE ( 'NONE', *, *, #1113, .F. ) ;
#92 = FILL_AREA_STYLE_COLOUR ( '', #668 ) ;
#93 = LINE ( 'NONE', #684, #518 ) ;
#94 = AXIS2_PLACEMENT_3D ( 'NONE', #84, #1218, #377 ) ;
#95 = AXIS2_PLACEMENT_3D ( 'NONE', #27, #198, #1161 ) ;
#96 = VECTOR ( 'NONE', #9, 1000.000000000000000 ) ;
#97 = DIRECTION ( 'NONE',  ( -0.1622214211307625165, -0.1622214211307625165, 0.9733285267845751543 ) ) ;
#98 =( NAMED_UNIT ( * ) SI_UNIT ( $, .STERADIAN. ) SOLID_ANGLE_UNIT ( ) );
#99 = ORIENTED_EDGE ( 'NONE', *, *, #628, .F. ) ;
#100 = CARTESIAN_POINT ( 'NONE',  ( 1.300000000000000266, -0.1750000000000000167, 0.0000000000000000000 ) ) ;
#101 = ORIENTED_EDGE ( 'NONE', *, *, #251, .T. ) ;
#102 = CARTESIAN_POINT ( 'NONE',  ( 0.8996143177414637204, -0.1750000000000000167, 0.6976859052556582119 ) ) ;
#103 = EDGE_CURVE ( 'NONE', #538, #422, #763, .T. ) ;
#104 = SURFACE_STYLE_FILL_AREA ( #409 ) ;
#105 = PLANE ( 'NONE',  #234 ) ;
#106 = ORIENTED_EDGE ( 'NONE', *, *, #906, .T. ) ;
#107 = LINE ( 'NONE', #273, #342 ) ;
#108 = ORIENTED_EDGE ( 'NONE', *, *, #1214, .T. ) ;
#109 = FACE_OUTER_BOUND ( 'NONE', #1084, .T. ) ;
#110 = ORIENTED_EDGE ( 'NONE', *, *, #333, .F. ) ;
#111 = EDGE_CURVE ( 'NONE', #590, #312, #196, .T. ) ;
#112 = DIRECTION ( 'NONE',  ( -0.9778024140847265677, 0.0000000000000000000, 0.2095290886967271504 ) ) ;
#113 = FACE_OUTER_BOUND ( 'NONE', #874, .T. ) ;
#114 = ORIENTED_EDGE ( 'NONE', *, *, #622, .F. ) ;
#115 = PLANE ( 'NONE',  #819 ) ;
#116 = LINE ( 'NONE', #130, #920 ) ;
#117 = ORIENTED_EDGE ( 'NONE', *, *, #186, .F. ) ;
#118 =( LENGTH_UNIT ( ) NAMED_UNIT ( * ) SI_UNIT ( .MILLI., .METRE. ) );
#119 = VECTOR ( 'NONE', #562, 1000.000000000000227 ) ;
#120 = LINE ( 'NONE', #575, #692 ) ;
#121 = CARTESIAN_POINT ( 'NONE',  ( 1.188540564000000410, 0.1750000000000000167, 0.1595235456000000107 ) ) ;
#122 = ORIENTED_EDGE ( 'NONE', *, *, #206, .F. ) ;
#123 = EDGE_CURVE ( 'NONE', #754, #320, #212, .T. ) ;
#124 = CARTESIAN_POINT ( 'NONE',  ( 0.0000000000000000000, 0.5750000000000000666, 0.1000000000000000056 ) ) ;
#125 = VERTEX_POINT ( 'NONE', #43 ) ;
#126 = SURFACE_STYLE_FILL_AREA ( #984 ) ;
#127 = CARTESIAN_POINT ( 'NONE',  ( 1.084274952072845855, -0.1750000000000000167, 0.6460963995152526618 ) ) ;
#128 = ORIENTED_EDGE ( 'NONE', *, *, #983, .T. ) ;
#129 = ADVANCED_FACE ( 'NONE', ( #613 ), #433, .T. ) ;
#130 = CARTESIAN_POINT ( 'NONE',  ( 0.0000000000000000000, -0.5737500000439370584, 1.104999999999999982 ) ) ;
#131 = ORIENTED_EDGE ( 'NONE', *, *, #154, .F. ) ;
#132 = CARTESIAN_POINT ( 'NONE',  ( -0.8691584210000004029, -0.05833333333333334814, 0.8199999999007671070 ) ) ;
#133 = DIRECTION ( 'NONE',  ( 0.0000000000000000000, 0.0000000000000000000, -1.000000000000000000 ) ) ;
#134 = ORIENTED_EDGE ( 'NONE', *, *, #640, .F. ) ;
#135 = CARTESIAN_POINT ( 'NONE',  ( 1.300000000000000266, 0.0000000000000000000, 0.0000000000000000000 ) ) ;
#136 = ORIENTED_EDGE ( 'NONE', *, *, #1150, .T. ) ;
#137 = DIRECTION ( 'NONE',  ( 0.0000000000000000000, 1.000000000000000000, 0.0000000000000000000 ) ) ;
#138 =( GEOMETRIC_REPRESENTATION_CONTEXT ( 3 ) GLOBAL_UNCERTAINTY_ASSIGNED_CONTEXT ( ( #246 ) ) GLOBAL_UNIT_ASSIGNED_CONTEXT ( ( #352, #371, #1120 ) ) REPRESENTATION_CONTEXT ( 'NONE', 'WORKASPACE' ) );
#139 = STYLED_ITEM ( 'NONE', ( #827 ), #440 ) ;
#140 = STYLED_ITEM ( 'NONE', ( #1043 ), #810 ) ;
#141 = VECTOR ( 'NONE', #33, 1000.000000000000000 ) ;
#142 = CARTESIAN_POINT ( 'NONE',  ( 0.8799669973016659430, 0.1750000000000000167, 0.7801320124920698706 ) ) ;
#143 = ORIENTED_EDGE ( 'NONE', *, *, #1134, .F. ) ;
#144 = CARTESIAN_POINT ( 'NONE',  ( 1.214768967477713568, 0.1750000000000000167, 0.1200000000000000233 ) ) ;
#145 = CARTESIAN_POINT ( 'NONE',  ( 0.0000000000000000000, -0.1750000000000000167, 0.0000000000000000000 ) ) ;
#146 = EDGE_CURVE ( 'NONE', #1178, #488, #691, .T. ) ;
#147 = DIRECTION ( 'NONE',  ( 0.0000000000000000000, 0.0000000000000000000, -1.000000000000000000 ) ) ;
#148 = ORIENTED_EDGE ( 'NONE', *, *, #48, .F. ) ;
#149 = CARTESIAN_POINT ( 'NONE',  ( -0.8691584210000004029, 0.05833333333333334814, 0.8199999999007671070 ) ) ;
#150 = ADVANCED_FACE ( 'NONE', ( #1187 ), #222, .T. ) ;
#151 = CARTESIAN_POINT ( 'NONE',  ( 0.0000000000000000000, 0.0000000000000000000, 1.104999999999999982 ) ) ;
#152 = EDGE_LOOP ( 'NONE', ( #45, #877, #674, #106, #581, #768 ) ) ;
#153 = PRESENTATION_LAYER_ASSIGNMENT (  '', '', ( #1067 ) ) ;
#154 = EDGE_CURVE ( 'NONE', #630, #64, #242, .T. ) ;
#155 = CARTESIAN_POINT ( 'NONE',  ( -0.9327446484750459010, 0.1750000000000000167, 0.6848043933463777710 ) ) ;
#156 = ORIENTED_EDGE ( 'NONE', *, *, #455, .F. ) ;
#157 = PRESENTATION_LAYER_ASSIGNMENT (  '', '', ( #140 ) ) ;
#158 = SURFACE_STYLE_USAGE ( .BOTH. , #825 ) ;
#159 = DIRECTION ( 'NONE',  ( 0.0000000000000000000, 1.000000000000000000, 0.0000000000000000000 ) ) ;
#160 = UNCERTAINTY_MEASURE_WITH_UNIT (LENGTH_MEASURE( 1.000000000000000082E-05 ), #1121, 'distance_accuracy_value', 'NONE');
#161 = ORIENTED_EDGE ( 'NONE', *, *, #898, .T. ) ;
#162 = ORIENTED_EDGE ( 'NONE', *, *, #338, .T. ) ;
#163 = ADVANCED_FACE ( 'NONE', ( #239 ), #323, .T. ) ;
#164 = LINE ( 'NONE', #70, #272 ) ;
#165 = FILL_AREA_STYLE_COLOUR ( '', #419 ) ;
#166 = CARTESIAN_POINT ( 'NONE',  ( -0.8695544583768102243, 0.1750000000000000444, 0.8200990093111149015 ) ) ;
#167 = FACE_OUTER_BOUND ( 'NONE', #1029, .T. ) ;
#168 = CARTESIAN_POINT ( 'NONE',  ( -1.214768967793121268, 0.1750000000000000167, 0.1200000006959038301 ) ) ;
#169 = AXIS2_PLACEMENT_3D ( 'NONE', #451, #370, #936 ) ;
#170 = ORIENTED_EDGE ( 'NONE', *, *, #348, .T. ) ;
#171 = EDGE_CURVE ( 'NONE', #844, #1097, #283, .T. ) ;
#172 = DIRECTION ( 'NONE',  ( 0.0000000000000000000, -0.9701425001512142821, -0.2425356250128035962 ) ) ;
#173 = B_SPLINE_CURVE_WITH_KNOTS ( 'NONE', 3,
 ( #452, #262, #1012, #364 ),
 .UNSPECIFIED., .F., .F.,
 ( 4, 4 ),
 ( 0.0000000000000000000, 1.000000000000000000 ),
 .UNSPECIFIED. ) ;
#174 = SURFACE_STYLE_USAGE ( .BOTH. , #292 ) ;
#175 = ORIENTED_EDGE ( 'NONE', *, *, #999, .F. ) ;
#176 = DIRECTION ( 'NONE',  ( 0.0000000000000000000, 1.000000000000000000, 0.0000000000000000000 ) ) ;
#177 = UNCERTAINTY_MEASURE_WITH_UNIT (LENGTH_MEASURE( 1.000000000000000082E-05 ), #1058, 'distance_accuracy_value', 'NONE');
#178 = CARTESIAN_POINT ( 'NONE',  ( -1.046238627447774183, 0.1749999999999999889, 0.7397433321559371278 ) ) ;
#179 = LINE ( 'NONE', #731, #327 ) ;
#180 = CARTESIAN_POINT ( 'NONE',  ( 0.9000000001503323244, -0.6750000000359170915, 0.7000000000339885453 ) ) ;
#181 = DIRECTION ( 'NONE',  ( 1.000000000000000000, 0.0000000000000000000, -0.0000000000000000000 ) ) ;
#182 = DIRECTION ( 'NONE',  ( 0.0000000000000000000, 1.000000000000000000, 0.0000000000000000000 ) ) ;
#183 = CARTESIAN_POINT ( 'NONE',  ( 0.8691584210000001809, -0.05833333333333334814, 0.8200000000000000622 ) ) ;
#184 = ORIENTED_EDGE ( 'NONE', *, *, #338, .F. ) ;
#185 = LINE ( 'NONE', #492, #1172 ) ;
#186 = EDGE_CURVE ( 'NONE', #422, #187, #989, .T. ) ;
#187 = VERTEX_POINT ( 'NONE', #997 ) ;
#188 = COLOUR_RGB ( '',0.1215686274509803905, 0.1215686274509803905, 0.1215686274509803905 ) ;
#189 = CARTESIAN_POINT ( 'NONE',  ( -0.8996143177426213500, 0.1750000000000000167, 0.6976859052593303856 ) ) ;
#190 = DIRECTION ( 'NONE',  ( -0.0000000000000000000, -1.000000000000000000, -0.0000000000000000000 ) ) ;
#191 = CARTESIAN_POINT ( 'NONE',  ( -0.9000000000994397009, -0.6750000000347442519, 0.7000000000269518408 ) ) ;
#192 = CARTESIAN_POINT ( 'NONE',  ( -1.135518146089393277, 0.1750000000000000167, 3.993366565370067614E-10 ) ) ;
#193 = ORIENTED_EDGE ( 'NONE', *, *, #1186, .T. ) ;
#194 = CARTESIAN_POINT ( 'NONE',  ( 1.084274952072845855, -0.1750000000000000167, 0.6460963995152526618 ) ) ;
#195 = ADVANCED_FACE ( 'NONE', ( #428 ), #799, .T. ) ;
#196 = LINE ( 'NONE', #705, #1041 ) ;
#197 = EDGE_LOOP ( 'NONE', ( #980, #87, #781, #1155, #1050, #716, #703, #676, #527, #454 ) ) ;
#198 = DIRECTION ( 'NONE',  ( 0.0000000000000000000, 0.0000000000000000000, -1.000000000000000000 ) ) ;
#199 = CARTESIAN_POINT ( 'NONE',  ( -1.188540563824252105, -0.1750000000000000167, 0.1595235455898397214 ) ) ;
#200 = ORIENTED_EDGE ( 'NONE', *, *, #1032, .F. ) ;
#201 = CARTESIAN_POINT ( 'NONE',  ( -1.237430683999999781, -0.1750000000000000167, 0.1200000001739759820 ) ) ;
#202 = CARTESIAN_POINT ( 'NONE',  ( -0.7999999999901362679, 0.0000000000000000000, 0.1000000000016439683 ) ) ;
#203 = EDGE_LOOP ( 'NONE', ( #340, #491, #224, #331 ) ) ;
#204 = FACE_OUTER_BOUND ( 'NONE', #683, .T. ) ;
#205 = B_SPLINE_CURVE_WITH_KNOTS ( 'NONE', 3,
 ( #1210, #1033, #1131, #569 ),
 .UNSPECIFIED., .F., .F.,
 ( 4, 4 ),
 ( 0.0000000000000000000, 1.000000000000000000 ),
 .UNSPECIFIED. ) ;
#206 = EDGE_CURVE ( 'NONE', #329, #472, #173, .T. ) ;
#207 = CARTESIAN_POINT ( 'NONE',  ( -0.9000000003977585150, 0.0000000000000000000, 0.7000000000994398563 ) ) ;
#208 =( LENGTH_UNIT ( ) NAMED_UNIT ( * ) SI_UNIT ( .MILLI., .METRE. ) );
#209 = ORIENTED_EDGE ( 'NONE', *, *, #333, .T. ) ;
#210 = LINE ( 'NONE', #202, #1045 ) ;
#211 = ORIENTED_EDGE ( 'NONE', *, *, #640, .T. ) ;
#212 = LINE ( 'NONE', #232, #724 ) ;
#213 = AXIS2_PLACEMENT_3D ( 'NONE', #1090, #503, #425 ) ;
#214 = AXIS2_PLACEMENT_3D ( 'NONE', #1066, #1188, #598 ) ;
#215 = AXIS2_PLACEMENT_3D ( 'NONE', #465, #568, #549 ) ;
#216 = ADVANCED_FACE ( 'NONE', ( #1102 ), #546, .T. ) ;
#217 = CARTESIAN_POINT ( 'NONE',  ( -1.214768967793121268, -0.1750000000000000167, 0.1200000006959038301 ) ) ;
#218 = COLOUR_RGB ( '',0.1215686274509803905, 0.1215686274509803905, 0.1215686274509803905 ) ;
#219 = ORIENTED_EDGE ( 'NONE', *, *, #622, .T. ) ;
#220 = PLANE ( 'NONE',  #400 ) ;
#221 = ORIENTED_EDGE ( 'NONE', *, *, #154, .T. ) ;
#222 = CYLINDRICAL_SURFACE ( 'NONE', #213, 0.09999999960066335847 ) ;
#223 = CARTESIAN_POINT ( 'NONE',  ( 0.8000000001358198443, 0.5750000000000000666, 1.100000000033955150 ) ) ;
#224 = ORIENTED_EDGE ( 'NONE', *, *, #1032, .T. ) ;
#225 = CARTESIAN_POINT ( 'NONE',  ( 0.8695544583778576087, 0.1749999999999999889, 0.8200990093447650953 ) ) ;
#226 = ORIENTED_EDGE ( 'NONE', *, *, #1207, .F. ) ;
#227 = PRESENTATION_STYLE_ASSIGNMENT (( #786 ) ) ;
#228 = CARTESIAN_POINT ( 'NONE',  ( -1.047412014671641689, -0.1750000000000000167, 0.7385275875277405033 ) ) ;
#229 = CARTESIAN_POINT ( 'NONE',  ( -0.8992286350577040066, 0.0000000000000000000, 0.6953718104070496508 ) ) ;
#230 = ORIENTED_EDGE ( 'NONE', *, *, #516, .F. ) ;
#231 = EDGE_CURVE ( 'NONE', #261, #356, #59, .T. ) ;
#232 = CARTESIAN_POINT ( 'NONE',  ( 1.084274951999999903, -0.1750000000000000167, 0.6460963995000000848 ) ) ;
#233 = MECHANICAL_DESIGN_GEOMETRIC_PRESENTATION_REPRESENTATION (  '', ( #1042 ), #517 ) ;
#234 = AXIS2_PLACEMENT_3D ( 'NONE', #90, #1136, #484 ) ;
#235 = VECTOR ( 'NONE', #873, 1000.000000000000000 ) ;
#236 = AXIS2_PLACEMENT_3D ( 'NONE', #1096, #147, #522 ) ;
#237 = DIRECTION ( 'NONE',  ( -0.0000000000000000000, 1.000000000000000000, 0.0000000000000000000 ) ) ;
#238 = ORIENTED_EDGE ( 'NONE', *, *, #56, .F. ) ;
#239 = FACE_OUTER_BOUND ( 'NONE', #458, .T. ) ;
#240 = ADVANCED_FACE ( 'NONE', ( #1023 ), #915, .T. ) ;
#241 = FACE_OUTER_BOUND ( 'NONE', #54, .T. ) ;
#242 = B_SPLINE_CURVE_WITH_KNOTS ( 'NONE', 3,
 ( #595, #144, #712, #875 ),
 .UNSPECIFIED., .F., .F.,
 ( 4, 4 ),
 ( 0.0000000000000000000, 1.000000000000000000 ),
 .UNSPECIFIED. ) ;
#243 = ORIENTED_EDGE ( 'NONE', *, *, #1093, .T. ) ;
#244 = PRESENTATION_STYLE_ASSIGNMENT (( #158 ) ) ;
#245 = DIRECTION ( 'NONE',  ( 0.0000000000000000000, 0.0000000000000000000, 1.000000000000000000 ) ) ;
#246 = UNCERTAINTY_MEASURE_WITH_UNIT (LENGTH_MEASURE( 1.000000000000000082E-05 ), #352, 'distance_accuracy_value', 'NONE');
#247 = ADVANCED_FACE ( 'NONE', ( #1206 ), #1198, .F. ) ;
#248 = CARTESIAN_POINT ( 'NONE',  ( 0.8691584210000001809, -0.1750000000000000167, 0.6000000000000000888 ) ) ;
#249 = VERTEX_POINT ( 'NONE', #536 ) ;
#250 = MECHANICAL_DESIGN_GEOMETRIC_PRESENTATION_REPRESENTATION (  '', ( #591 ), #138 ) ;
#251 = EDGE_CURVE ( 'NONE', #320, #64, #459, .T. ) ;
#252 = MECHANICAL_DESIGN_GEOMETRIC_PRESENTATION_REPRESENTATION (  '', ( #139 ), #380 ) ;
#253 = ORIENTED_EDGE ( 'NONE', *, *, #1064, .F. ) ;
#254 =( GEOMETRIC_REPRESENTATION_CONTEXT ( 3 ) GLOBAL_UNCERTAINTY_ASSIGNED_CONTEXT ( ( #177 ) ) GLOBAL_UNIT_ASSIGNED_CONTEXT ( ( #1058, #1168, #1153 ) ) REPRESENTATION_CONTEXT ( 'NONE', 'WORKASPACE' ) );
#255 = SURFACE_STYLE_FILL_AREA ( #723 ) ;
#256 = PRODUCT_DEFINITION_FORMATION_WITH_SPECIFIED_SOURCE ( 'ANY', '', #985, .NOT_KNOWN. ) ;
#257 = AXIS2_PLACEMENT_3D ( 'NONE', #1087, #1180, #913 ) ;
#258 = SURFACE_STYLE_FILL_AREA ( #832 ) ;
#259 = DIRECTION ( 'NONE',  ( 0.0000000000000000000, 0.0000000000000000000, 1.000000000000000000 ) ) ;
#260 = SURFACE_SIDE_STYLE ('',( #909 ) ) ;
#261 = VERTEX_POINT ( 'NONE', #816 ) ;
#262 = CARTESIAN_POINT ( 'NONE',  ( 1.092557915279889214, 0.1750000000000000167, 0.03472972876291141597 ) ) ;
#263 =( NAMED_UNIT ( * ) PLANE_ANGLE_UNIT ( ) SI_UNIT ( $, .RADIAN. ) );
#264 =( NAMED_UNIT ( * ) PLANE_ANGLE_UNIT ( ) SI_UNIT ( $, .RADIAN. ) );
#265 = LINE ( 'NONE', #1, #275 ) ;
#266 = VERTEX_POINT ( 'NONE', #901 ) ;
#267 = CARTESIAN_POINT ( 'NONE',  ( 0.0000000000000000000, -0.8000000000242537546, 0.1999999999854479293 ) ) ;
#268 = ADVANCED_FACE ( 'NONE', ( #167 ), #75, .F. ) ;
#269 = LINE ( 'NONE', #1195, #324 ) ;
#270 = FILL_AREA_STYLE ('',( #165 ) ) ;
#271 = STYLED_ITEM ( 'NONE', ( #227 ), #163 ) ;
#272 = VECTOR ( 'NONE', #83, 1000.000000000000000 ) ;
#273 = CARTESIAN_POINT ( 'NONE',  ( 0.8000000000000000444, -0.0000000000000000000, 1.100000000000000089 ) ) ;
#274 = MECHANICAL_DESIGN_GEOMETRIC_PRESENTATION_REPRESENTATION (  '', ( #140 ), #254 ) ;
#275 = VECTOR ( 'NONE', #379, 1000.000000000000000 ) ;
#276 = EDGE_CURVE ( 'NONE', #775, #329, #933, .T. ) ;
#277 = CARTESIAN_POINT ( 'NONE',  ( -0.8000000000000000444, -0.5750000000443878934, 0.09999999999260206218 ) ) ;
#278 =( NAMED_UNIT ( * ) PLANE_ANGLE_UNIT ( ) SI_UNIT ( $, .RADIAN. ) );
#279 = ORIENTED_EDGE ( 'NONE', *, *, #727, .T. ) ;
#280 = CARTESIAN_POINT ( 'NONE',  ( 1.180841579000000197, 0.0000000000000000000, 0.0000000000000000000 ) ) ;
#281 = CARTESIAN_POINT ( 'NONE',  ( -1.300000000000000266, -0.0000000000000000000, 0.1200000000000000233 ) ) ;
#282 = UNCERTAINTY_MEASURE_WITH_UNIT (LENGTH_MEASURE( 1.000000000000000082E-05 ), #1123, 'distance_accuracy_value', 'NONE');
#283 = B_SPLINE_CURVE_WITH_KNOTS ( 'NONE', 3,
 ( #977, #132, #149, #697 ),
 .UNSPECIFIED., .F., .F.,
 ( 4, 4 ),
 ( 0.0000000000000000000, 1.000000000000000000 ),
 .UNSPECIFIED. ) ;
#284 = DIRECTION ( 'NONE',  ( -0.0000000000000000000, -1.000000000000000000, -0.0000000000000000000 ) ) ;
#285 = EDGE_CURVE ( 'NONE', #415, #500, #185, .T. ) ;
#286 = FILL_AREA_STYLE_COLOUR ( '', #941 ) ;
#287 = CARTESIAN_POINT ( 'NONE',  ( -1.084274951999999903, 0.0000000000000000000, 0.6460963995000000848 ) ) ;
#288 = CARTESIAN_POINT ( 'NONE',  ( 0.8691584210000001809, -0.1750000000000000167, 0.6000000000000000888 ) ) ;
#289 = SURFACE_SIDE_STYLE ('',( #104 ) ) ;
#290 = DIRECTION ( 'NONE',  ( -0.0000000000000000000, 0.0000000000000000000, -1.000000000000000000 ) ) ;
#291 = EDGE_CURVE ( 'NONE', #974, #427, #3, .T. ) ;
#292 = SURFACE_SIDE_STYLE ('',( #1132 ) ) ;
#293 = ORIENTED_EDGE ( 'NONE', *, *, #455, .T. ) ;
#294 = DIRECTION ( 'NONE',  ( -1.000000000000000000, -0.0000000000000000000, -0.0000000000000000000 ) ) ;
#295 = ORIENTED_EDGE ( 'NONE', *, *, #872, .F. ) ;
#296 = SURFACE_SIDE_STYLE ('',( #1035 ) ) ;
#297 =( GEOMETRIC_REPRESENTATION_CONTEXT ( 3 ) GLOBAL_UNCERTAINTY_ASSIGNED_CONTEXT ( ( #1036 ) ) GLOBAL_UNIT_ASSIGNED_CONTEXT ( ( #208, #525, #992 ) ) REPRESENTATION_CONTEXT ( 'NONE', 'WORKASPACE' ) );
#298 = EDGE_LOOP ( 'NONE', ( #385, #1011, #221, #578 ) ) ;
#299 = FACE_OUTER_BOUND ( 'NONE', #1190, .T. ) ;
#300 = B_SPLINE_CURVE_WITH_KNOTS ( 'NONE', 3,
 ( #629, #1003, #155, #904 ),
 .UNSPECIFIED., .F., .F.,
 ( 4, 4 ),
 ( 0.0000000000000000000, 1.000000000000000000 ),
 .UNSPECIFIED. ) ;
#301 = DIRECTION ( 'NONE',  ( 0.2357022603955158113, 0.2357022603726492971, 0.9428090415877798947 ) ) ;
#302 = APPLICATION_PROTOCOL_DEFINITION ( 'draft international standard', 'automotive_design', 1998, #496 ) ;
#303 = ORIENTED_EDGE ( 'NONE', *, *, #713, .F. ) ;
#304 = B_SPLINE_CURVE_WITH_KNOTS ( 'NONE', 3,
 ( #767, #28, #897, #529 ),
 .UNSPECIFIED., .F., .F.,
 ( 4, 4 ),
 ( 0.0000000000000000000, 1.000000000000000000 ),
 .UNSPECIFIED. ) ;
#305 = CARTESIAN_POINT ( 'NONE',  ( -1.180841579000000197, -0.1750000000000000167, 1.992777924825824692E-10 ) ) ;
#306 = CARTESIAN_POINT ( 'NONE',  ( 0.9000000003977585150, 0.0000000000000000000, 0.7000000000994398563 ) ) ;
#307 = ORIENTED_EDGE ( 'NONE', *, *, #80, .F. ) ;
#308 = EDGE_CURVE ( 'NONE', #502, #630, #1143, .T. ) ;
#309 = DIRECTION ( 'NONE',  ( 0.0000000000000000000, 0.0000000000000000000, 1.000000000000000000 ) ) ;
#310 = DIRECTION ( 'NONE',  ( 0.0000000000000000000, 1.000000000000000000, 0.0000000000000000000 ) ) ;
#311 = FILL_AREA_STYLE ('',( #341 ) ) ;
#312 = VERTEX_POINT ( 'NONE', #391 ) ;
#313 = PRESENTATION_STYLE_ASSIGNMENT (( #769 ) ) ;
#314 = CARTESIAN_POINT ( 'NONE',  ( -0.8000000004074599991, -0.1916666666666667074, 1.100000000101865050 ) ) ;
#315 = ORIENTED_EDGE ( 'NONE', *, *, #1186, .F. ) ;
#316 = DIRECTION ( 'NONE',  ( 0.0000000000000000000, -1.000000000000000000, -0.0000000000000000000 ) ) ;
#317 = EDGE_CURVE ( 'NONE', #25, #1142, #748, .T. ) ;
#318 = CARTESIAN_POINT ( 'NONE',  ( -0.7999999999901362679, 0.5750000000000000666, 0.1000000000016439683 ) ) ;
#319 = CARTESIAN_POINT ( 'NONE',  ( 0.9669386624000001484, 0.1750000000000000167, 0.6209529088999999891 ) ) ;
#320 = VERTEX_POINT ( 'NONE', #840 ) ;
#321 = DIRECTION ( 'NONE',  ( -0.1622214211307625165, 0.1622214211307625165, -0.9733285267845751543 ) ) ;
#322 = VERTEX_POINT ( 'NONE', #670 ) ;
#323 = PLANE ( 'NONE',  #964 ) ;
#324 = VECTOR ( 'NONE', #907, 1000.000000000000000 ) ;
#325 = PRESENTATION_LAYER_ASSIGNMENT (  '', '', ( #615 ) ) ;
#326 = CARTESIAN_POINT ( 'NONE',  ( -0.8996143177413211678, -0.1750000000000000167, 0.6976859052595673072 ) ) ;
#327 = VECTOR ( 'NONE', #1203, 1000.000000000000227 ) ;
#328 = AXIS2_PLACEMENT_3D ( 'NONE', #652, #1213, #663 ) ;
#329 = VERTEX_POINT ( 'NONE', #958 ) ;
#330 = DIRECTION ( 'NONE',  ( 0.0000000000000000000, 0.0000000000000000000, -1.000000000000000000 ) ) ;
#331 = ORIENTED_EDGE ( 'NONE', *, *, #887, .F. ) ;
#332 = CARTESIAN_POINT ( 'NONE',  ( -0.9218222061321059702, -0.1750000000000000999, 0.8196220788558400416 ) ) ;
#333 = EDGE_CURVE ( 'NONE', #538, #853, #846, .T. ) ;
#334 = DIRECTION ( 'NONE',  ( 0.2357022603955158113, -0.2357022603726492971, -0.9428090415877798947 ) ) ;
#335 = ORIENTED_EDGE ( 'NONE', *, *, #999, .T. ) ;
#336 = CARTESIAN_POINT ( 'NONE',  ( 0.0000000000000000000, 0.1750000000000000167, 0.0000000000000000000 ) ) ;
#337 = ORIENTED_EDGE ( 'NONE', *, *, #463, .F. ) ;
#338 = EDGE_CURVE ( 'NONE', #266, #754, #366, .T. ) ;
#339 = CARTESIAN_POINT ( 'NONE',  ( 1.180841579000000197, -0.1750000000000000167, 0.0000000000000000000 ) ) ;
#340 = ORIENTED_EDGE ( 'NONE', *, *, #71, .T. ) ;
#341 = FILL_AREA_STYLE_COLOUR ( '', #706 ) ;
#342 = VECTOR ( 'NONE', #938, 1000.000000000000000 ) ;
#343 = VECTOR ( 'NONE', #182, 1000.000000000000000 ) ;
#344 = ORIENTED_EDGE ( 'NONE', *, *, #1064, .T. ) ;
#345 = VECTOR ( 'NONE', #1171, 1000.000000000000000 ) ;
#346 = ORIENTED_EDGE ( 'NONE', *, *, #828, .T. ) ;
#347 = DIRECTION ( 'NONE',  ( 0.2357022603726492971, -0.2357022603955160611, 0.9428090415877798947 ) ) ;
#348 = EDGE_CURVE ( 'NONE', #795, #687, #994, .T. ) ;
#349 = FACE_OUTER_BOUND ( 'NONE', #1072, .T. ) ;
#350 = DIRECTION ( 'NONE',  ( -1.000000000000000000, -0.0000000000000000000, 0.0000000000000000000 ) ) ;
#351 = ORIENTED_EDGE ( 'NONE', *, *, #276, .F. ) ;
#352 =( LENGTH_UNIT ( ) NAMED_UNIT ( * ) SI_UNIT ( .MILLI., .METRE. ) );
#353 =( NAMED_UNIT ( * ) SI_UNIT ( $, .STERADIAN. ) SOLID_ANGLE_UNIT ( ) );
#354 = EDGE_CURVE ( 'NONE', #924, #411, #16, .T. ) ;
#355 = FACE_OUTER_BOUND ( 'NONE', #535, .T. ) ;
#356 = VERTEX_POINT ( 'NONE', #100 ) ;
#357 = CARTESIAN_POINT ( 'NONE',  ( 1.180841579000000197, -0.1750000000000000167, 0.1000000000000000056 ) ) ;
#358 = FILL_AREA_STYLE_COLOUR ( '', #646 ) ;
#359 = PRESENTATION_LAYER_ASSIGNMENT (  '', '', ( #1042 ) ) ;
#360 = CLOSED_SHELL ( 'NONE', ( #1076, #195, #440, #163, #655, #247, #420, #810, #129, #216, #426, #599, #671, #86, #864, #645, #30, #588, #268, #150, #750, #1057, #13, #737, #839, #1082, #564, #240, #1129, #855, #1099, #1167, #555 ) ) ;
#361 = CARTESIAN_POINT ( 'NONE',  ( 1.180841579000000197, -0.1750000000000000167, 0.0000000000000000000 ) ) ;
#362 = ORIENTED_EDGE ( 'NONE', *, *, #285, .F. ) ;
#363 = VECTOR ( 'NONE', #1177, 1000.000000000000000 ) ;
#364 = CARTESIAN_POINT ( 'NONE',  ( 1.180841579000000197, 0.1750000000000000167, -3.905194581339116455E-13 ) ) ;
#365 = CARTESIAN_POINT ( 'NONE',  ( 1.193288852181060067, -0.1750000000000000167, 0.1373648643421708782 ) ) ;
#366 = B_SPLINE_CURVE_WITH_KNOTS ( 'NONE', 3,
 ( #859, #1053, #573, #947, #753, #194 ),
 .UNSPECIFIED., .F., .F.,
 ( 4, 2, 4 ),
 ( 0.0000000000000000000, 0.5000000000000000000, 1.000000000000000000 ),
 .UNSPECIFIED. ) ;
#367 = PLANE ( 'NONE',  #94 ) ;
#368 = DIRECTION ( 'NONE',  ( 0.0000000000000000000, -0.0000000000000000000, 1.000000000000000000 ) ) ;
#369 = EDGE_CURVE ( 'NONE', #1106, #472, #88, .T. ) ;
#370 = DIRECTION ( 'NONE',  ( 0.0000000000000000000, 1.000000000000000000, -0.0000000000000000000 ) ) ;
#371 =( NAMED_UNIT ( * ) PLANE_ANGLE_UNIT ( ) SI_UNIT ( $, .RADIAN. ) );
#372 =( LENGTH_UNIT ( ) NAMED_UNIT ( * ) SI_UNIT ( .MILLI., .METRE. ) );
#373 = CARTESIAN_POINT ( 'NONE',  ( 1.084274952074015141, 0.1750000000000000167, 0.6460963995138961913 ) ) ;
#374 = EDGE_CURVE ( 'NONE', #711, #709, #610, .T. ) ;
#375 = CARTESIAN_POINT ( 'NONE',  ( 1.300000000000000266, -0.1750000000000000167, -0.0000000000000000000 ) ) ;
#376 = UNCERTAINTY_MEASURE_WITH_UNIT (LENGTH_MEASURE( 1.000000000000000082E-05 ), #1174, 'distance_accuracy_value', 'NONE');
#377 = DIRECTION ( 'NONE',  ( 1.000000000000000000, 0.0000000000000000000, -0.0000000000000000000 ) ) ;
#378 = PRESENTATION_LAYER_ASSIGNMENT (  '', '', ( #591 ) ) ;
#379 = DIRECTION ( 'NONE',  ( 1.000000000000000000, 0.0000000000000000000, -0.0000000000000000000 ) ) ;
#380 =( GEOMETRIC_REPRESENTATION_CONTEXT ( 3 ) GLOBAL_UNCERTAINTY_ASSIGNED_CONTEXT ( ( #654 ) ) GLOBAL_UNIT_ASSIGNED_CONTEXT ( ( #563, #264, #1122 ) ) REPRESENTATION_CONTEXT ( 'NONE', 'WORKASPACE' ) );
#381 = CARTESIAN_POINT ( 'NONE',  ( 0.9000000003977585150, 0.0000000000000000000, 0.7000000000994398563 ) ) ;
#382 = VECTOR ( 'NONE', #509, 1000.000000000000000 ) ;
#383 = EDGE_CURVE ( 'NONE', #775, #777, #658, .T. ) ;
#384 = DIRECTION ( 'NONE',  ( 0.0000000000000000000, 1.000000000000000000, 0.0000000000000000000 ) ) ;
#385 = ORIENTED_EDGE ( 'NONE', *, *, #628, .T. ) ;
#386 = CARTESIAN_POINT ( 'NONE',  ( 0.0000000000000000000, 0.5750000000000000666, 1.100000000000000089 ) ) ;
#387 = PLANE ( 'NONE',  #470 ) ;
#388 = EDGE_CURVE ( 'NONE', #853, #187, #107, .T. ) ;
#389 = DIRECTION ( 'NONE',  ( 0.0000000000000000000, 1.000000000000000000, 0.0000000000000000000 ) ) ;
#390 = LINE ( 'NONE', #751, #862 ) ;
#391 = CARTESIAN_POINT ( 'NONE',  ( -0.8000000001358199553, 0.5750000000068719030, 1.102500000035673056 ) ) ;
#392 = ORIENTED_EDGE ( 'NONE', *, *, #526, .T. ) ;
#393 = CYLINDRICAL_SURFACE ( 'NONE', #903, 0.2200000000000000289 ) ;
#394 = PLANE ( 'NONE',  #214 ) ;
#395 = DIRECTION ( 'NONE',  ( 1.000000000000000000, -0.0000000000000000000, 0.0000000000000000000 ) ) ;
#396 = ORIENTED_EDGE ( 'NONE', *, *, #948, .F. ) ;
#397 = VECTOR ( 'NONE', #953, 1000.000000000000000 ) ;
#398 = VECTOR ( 'NONE', #780, 1000.000000000000227 ) ;
#399 = AXIS2_PLACEMENT_3D ( 'NONE', #554, #384, #739 ) ;
#400 = AXIS2_PLACEMENT_3D ( 'NONE', #600, #975, #330 ) ;
#401 = PLANE ( 'NONE',  #574 ) ;
#402 = ORIENTED_EDGE ( 'NONE', *, *, #498, .F. ) ;
#403 = SURFACE_SIDE_STYLE ('',( #1060 ) ) ;
#404 = EDGE_CURVE ( 'NONE', #815, #249, #927, .T. ) ;
#405 = CARTESIAN_POINT ( 'NONE',  ( -1.083061337999999818, 0.1750000000000000167, 0.07904709112999999676 ) ) ;
#406 = ORIENTED_EDGE ( 'NONE', *, *, #66, .T. ) ;
#407 = LINE ( 'NONE', #281, #669 ) ;
#408 = B_SPLINE_CURVE_WITH_KNOTS ( 'NONE', 3,
 ( #926, #365, #916, #811 ),
 .UNSPECIFIED., .F., .F.,
 ( 4, 4 ),
 ( 0.0000000000000000000, 1.000000000000000000 ),
 .UNSPECIFIED. ) ;
#409 = FILL_AREA_STYLE ('',( #973 ) ) ;
#410 = CARTESIAN_POINT ( 'NONE',  ( -1.180841579000000197, 0.1750000000000000167, 1.996683119407163809E-10 ) ) ;
#411 = VERTEX_POINT ( 'NONE', #201 ) ;
#412 = CARTESIAN_POINT ( 'NONE',  ( -1.180841579000000197, 0.0000000000000000000, 3.993365967763784496E-10 ) ) ;
#413 = EDGE_LOOP ( 'NONE', ( #635, #1062, #110, #1124 ) ) ;
#414 = CARTESIAN_POINT ( 'NONE',  ( 0.8695544583778576087, 0.1749999999999999889, 0.8200990093447650953 ) ) ;
#415 = VERTEX_POINT ( 'NONE', #180 ) ;
#416 = CARTESIAN_POINT ( 'NONE',  ( 0.9000000002029554524, 0.6750000000144247281, 0.7000000000913541021 ) ) ;
#417 = ORIENTED_EDGE ( 'NONE', *, *, #802, .T. ) ;
#418 = AXIS2_PLACEMENT_3D ( 'NONE', #267, #1107, #831 ) ;
#419 = COLOUR_RGB ( '',0.1215686274509803905, 0.1215686274509803905, 0.1215686274509803905 ) ;
#420 = ADVANCED_FACE ( 'NONE', ( #585 ), #115, .F. ) ;
#421 = VECTOR ( 'NONE', #1051, 1000.000000000000000 ) ;
#422 = VERTEX_POINT ( 'NONE', #843 ) ;
#423 = DIRECTION ( 'NONE',  ( -0.0000000000000000000, -1.000000000000000000, -0.0000000000000000000 ) ) ;
#424 = ORIENTED_EDGE ( 'NONE', *, *, #383, .T. ) ;
#425 = DIRECTION ( 'NONE',  ( 0.0000000000000000000, 0.0000000000000000000, 1.000000000000000000 ) ) ;
#426 = ADVANCED_FACE ( 'NONE', ( #1219 ), #105, .F. ) ;
#427 = VERTEX_POINT ( 'NONE', #740 ) ;
#428 = FACE_OUTER_BOUND ( 'NONE', #1212, .T. ) ;
#429 = PLANE ( 'NONE',  #784 ) ;
#430 = EDGE_CURVE ( 'NONE', #1078, #924, #856, .T. ) ;
#431 = FILL_AREA_STYLE_COLOUR ( '', #78 ) ;
#432 = EDGE_LOOP ( 'NONE', ( #1000, #729, #619, #558 ) ) ;
#433 = PLANE ( 'NONE',  #1217 ) ;
#434 = SURFACE_STYLE_USAGE ( .BOTH. , #47 ) ;
#435 = VECTOR ( 'NONE', #23, 1000.000000000000000 ) ;
#436 = PRESENTATION_LAYER_ASSIGNMENT (  '', '', ( #967 ) ) ;
#437 = ORIENTED_EDGE ( 'NONE', *, *, #66, .F. ) ;
#438 = LINE ( 'NONE', #808, #651 ) ;
#439 = ORIENTED_EDGE ( 'NONE', *, *, #542, .T. ) ;
#440 = ADVANCED_FACE ( 'NONE', ( #556 ), #648, .F. ) ;
#441 =( NAMED_UNIT ( * ) SI_UNIT ( $, .STERADIAN. ) SOLID_ANGLE_UNIT ( ) );
#442 = DIRECTION ( 'NONE',  ( 0.0000000000000000000, 0.0000000000000000000, 1.000000000000000000 ) ) ;
#443 = ORIENTED_EDGE ( 'NONE', *, *, #498, .T. ) ;
#444 = DIRECTION ( 'NONE',  ( 0.0000000000000000000, 0.0000000000000000000, 1.000000000000000000 ) ) ;
#445 =( NAMED_UNIT ( * ) SI_UNIT ( $, .STERADIAN. ) SOLID_ANGLE_UNIT ( ) );
#446 = EDGE_LOOP ( 'NONE', ( #295, #1165, #279, #1192 ) ) ;
#447 = DIRECTION ( 'NONE',  ( 0.0000000000000000000, 1.000000000000000000, 0.0000000000000000000 ) ) ;
#448 = EDGE_CURVE ( 'NONE', #1097, #68, #205, .T. ) ;
#449 = MECHANICAL_DESIGN_GEOMETRIC_PRESENTATION_REPRESENTATION (  '', ( #986 ), #474 ) ;
#450 = LINE ( 'NONE', #1130, #343 ) ;
#451 = CARTESIAN_POINT ( 'NONE',  ( 1.237430683999999781, -0.1750000000000000167, 0.1700000000000000122 ) ) ;
#452 = CARTESIAN_POINT ( 'NONE',  ( 1.083061337583877792, 0.1750000000000000167, 0.07904709106279525499 ) ) ;
#453 = PLANE ( 'NONE',  #399 ) ;
#454 = ORIENTED_EDGE ( 'NONE', *, *, #56, .T. ) ;
#455 = EDGE_CURVE ( 'NONE', #914, #711, #943, .T. ) ;
#456 = CARTESIAN_POINT ( 'NONE',  ( 0.0000000000000000000, 0.8000000000242537546, 0.1999999999854479293 ) ) ;
#457 = FILL_AREA_STYLE ('',( #1211 ) ) ;
#458 = EDGE_LOOP ( 'NONE', ( #971, #2, #494, #752, #238, #883, #58, #735 ) ) ;
#459 = LINE ( 'NONE', #69, #1071 ) ;
#460 = PRESENTATION_STYLE_ASSIGNMENT (( #1103 ) ) ;
#461 = CARTESIAN_POINT ( 'NONE',  ( -1.084274951999999903, 0.1750000000000000167, 0.6460963995000000848 ) ) ;
#462 = CARTESIAN_POINT ( 'NONE',  ( 1.083061337135983404, -0.0000000000000000000, 0.07904709094485362630 ) ) ;
#463 = EDGE_CURVE ( 'NONE', #50, #322, #390, .T. ) ;
#464 = FILL_AREA_STYLE_COLOUR ( '', #1109 ) ;
#465 = CARTESIAN_POINT ( 'NONE',  ( 1.011764706275403380, 0.0000000000000000000, 0.2529411765427783121 ) ) ;
#466 = AXIS2_PLACEMENT_3D ( 'NONE', #528, #636, #643 ) ;
#467 = CARTESIAN_POINT ( 'NONE',  ( 0.8695544583768100022, -0.1750000000000000444, 0.8200990093441924422 ) ) ;
#468 = VERTEX_POINT ( 'NONE', #666 ) ;
#469 = AXIS2_PLACEMENT_3D ( 'NONE', #1037, #85, #835 ) ;
#470 = AXIS2_PLACEMENT_3D ( 'NONE', #673, #765, #841 ) ;
#471 = DIRECTION ( 'NONE',  ( 1.000000000000000000, 0.0000000000000000000, -0.0000000000000000000 ) ) ;
#472 = VERTEX_POINT ( 'NONE', #1044 ) ;
#473 = EDGE_CURVE ( 'NONE', #427, #468, #510, .T. ) ;
#474 =( GEOMETRIC_REPRESENTATION_CONTEXT ( 3 ) GLOBAL_UNCERTAINTY_ASSIGNED_CONTEXT ( ( #1001 ) ) GLOBAL_UNIT_ASSIGNED_CONTEXT ( ( #541, #911, #441 ) ) REPRESENTATION_CONTEXT ( 'NONE', 'WORKASPACE' ) );
#475 = CARTESIAN_POINT ( 'NONE',  ( 0.0000000000000000000, -0.1750000000000000167, 0.0000000000000000000 ) ) ;
#476 = B_SPLINE_CURVE_WITH_KNOTS ( 'NONE', 3,
 ( #77, #1200, #168, #67 ),
 .UNSPECIFIED., .F., .F.,
 ( 4, 4 ),
 ( 0.0000000000000000000, 1.000000000000000000 ),
 .UNSPECIFIED. ) ;
#477 = FACE_OUTER_BOUND ( 'NONE', #982, .T. ) ;
#478 = CARTESIAN_POINT ( 'NONE',  ( -1.300000000000000266, -0.1750000000000000167, 0.0000000000000000000 ) ) ;
#479 = EDGE_LOOP ( 'NONE', ( #690, #905, #1152, #798, #571, #315, #99, #679, #184, #443 ) ) ;
#480 = DIRECTION ( 'NONE',  ( 0.0000000000000000000, 1.000000000000000000, 0.0000000000000000000 ) ) ;
#481 = ORIENTED_EDGE ( 'NONE', *, *, #123, .T. ) ;
#482 = PLANE ( 'NONE',  #805 ) ;
#483 = CARTESIAN_POINT ( 'NONE',  ( -0.7621621621522984835, 0.0000000000000000000, -0.1270270270253831546 ) ) ;
#484 = DIRECTION ( 'NONE',  ( 0.0000000000000000000, -0.0000000000000000000, 1.000000000000000000 ) ) ;
#485 = ORIENTED_EDGE ( 'NONE', *, *, #1202, .T. ) ;
#486 = CARTESIAN_POINT ( 'NONE',  ( -0.9327446484750459010, -0.1750000000000000167, 0.6848043933463777710 ) ) ;
#487 = MANIFOLD_SOLID_BREP ( 'Imported1', #360 ) ;
#488 = VERTEX_POINT ( 'NONE', #199 ) ;
#489 = CARTESIAN_POINT ( 'NONE',  ( -0.8695544583778574976, -0.1749999999999999889, 0.8200990093116875546 ) ) ;
#490 = CARTESIAN_POINT ( 'NONE',  ( -0.8691584210000001809, -0.1750000000000000167, 0.6000000000000000888 ) ) ;
#491 = ORIENTED_EDGE ( 'NONE', *, *, #369, .T. ) ;
#492 = CARTESIAN_POINT ( 'NONE',  ( 0.0000000000000000000, -0.6750000000315298232, 0.7000000000078824280 ) ) ;
#493 = DIRECTION ( 'NONE',  ( -1.000000000000000000, 0.0000000000000000000, 0.0000000000000000000 ) ) ;
#494 = ORIENTED_EDGE ( 'NONE', *, *, #448, .F. ) ;
#495 = CARTESIAN_POINT ( 'NONE',  ( -1.237430683999999781, 0.0000000000000000000, 0.1200000000000000233 ) ) ;
#496 = APPLICATION_CONTEXT ( 'automotive_design' ) ;
#497 = PRESENTATION_STYLE_ASSIGNMENT (( #434 ) ) ;
#498 = EDGE_CURVE ( 'NONE', #266, #521, #304, .T. ) ;
#499 = DIRECTION ( 'NONE',  ( 1.000000000000000000, 0.0000000000000000000, 0.0000000000000000000 ) ) ;
#500 = VERTEX_POINT ( 'NONE', #191 ) ;
#501 = LINE ( 'NONE', #876, #141 ) ;
#502 = VERTEX_POINT ( 'NONE', #1147 ) ;
#503 = DIRECTION ( 'NONE',  ( 0.0000000000000000000, 1.000000000000000000, 0.0000000000000000000 ) ) ;
#504 = DIRECTION ( 'NONE',  ( 0.2357022603726492971, 0.2357022603955160611, -0.9428090415877798947 ) ) ;
#505 = ORIENTED_EDGE ( 'NONE', *, *, #206, .T. ) ;
#506 = CARTESIAN_POINT ( 'NONE',  ( -1.084274952025500172, -0.1750000000000000167, 0.6460963995035000629 ) ) ;
#507 = EDGE_LOOP ( 'NONE', ( #439, #1047, #219, #696 ) ) ;
#508 = EDGE_CURVE ( 'NONE', #64, #687, #14, .T. ) ;
#509 = DIRECTION ( 'NONE',  ( 1.000000000000000000, 0.0000000000000000000, 0.0000000000000000000 ) ) ;
#510 = B_SPLINE_CURVE_WITH_KNOTS ( 'NONE', 3,
 ( #576, #951, #892, #1052 ),
 .UNSPECIFIED., .F., .F.,
 ( 4, 4 ),
 ( 0.0000000000000000000, 1.000000000000000000 ),
 .UNSPECIFIED. ) ;
#511 = DIRECTION ( 'NONE',  ( -0.2095290893580920577, 0.0000000000000000000, -0.9778024139430054884 ) ) ;
#512 = VERTEX_POINT ( 'NONE', #410 ) ;
#513 = CARTESIAN_POINT ( 'NONE',  ( -1.083061337681877623, 0.1750000000000000167, 0.07904709108379522065 ) ) ;
#514 = ORIENTED_EDGE ( 'NONE', *, *, #111, .T. ) ;
#515 = CARTESIAN_POINT ( 'NONE',  ( 0.0000000000000000000, -0.5750000000412311962, 1.100000000010308066 ) ) ;
#516 = EDGE_CURVE ( 'NONE', #468, #329, #584, .T. ) ;
#517 =( GEOMETRIC_REPRESENTATION_CONTEXT ( 3 ) GLOBAL_UNCERTAINTY_ASSIGNED_CONTEXT ( ( #631 ) ) GLOBAL_UNIT_ASSIGNED_CONTEXT ( ( #1027, #278, #98 ) ) REPRESENTATION_CONTEXT ( 'NONE', 'WORKASPACE' ) );
#518 = VECTOR ( 'NONE', #961, 1000.000000000000227 ) ;
#519 = AXIS2_PLACEMENT_3D ( 'NONE', #248, #1016, #442 ) ;
#520 = DIRECTION ( 'NONE',  ( 0.0000000000000000000, 1.000000000000000000, 0.0000000000000000000 ) ) ;
#521 = VERTEX_POINT ( 'NONE', #1154 ) ;
#522 = DIRECTION ( 'NONE',  ( -1.000000000000000000, 0.0000000000000000000, -0.0000000000000000000 ) ) ;
#523 = ORIENTED_EDGE ( 'NONE', *, *, #582, .F. ) ;
#524 = SURFACE_STYLE_FILL_AREA ( #1182 ) ;
#525 =( NAMED_UNIT ( * ) PLANE_ANGLE_UNIT ( ) SI_UNIT ( $, .RADIAN. ) );
#526 = EDGE_CURVE ( 'NONE', #709, #1078, #621, .T. ) ;
#527 = ORIENTED_EDGE ( 'NONE', *, *, #404, .F. ) ;
#528 = CARTESIAN_POINT ( 'NONE',  ( -0.8691584210000001809, -0.1750000000000000167, 0.6000000000000000888 ) ) ;
#529 = CARTESIAN_POINT ( 'NONE',  ( 0.8996143177414637204, -0.1750000000000000167, 0.6976859052556582119 ) ) ;
#530 = PRESENTATION_LAYER_ASSIGNMENT (  '', '', ( #1145 ) ) ;
#531 = PRESENTATION_LAYER_ASSIGNMENT (  '', '', ( #922 ) ) ;
#532 = PRESENTATION_LAYER_ASSIGNMENT (  '', '', ( #986 ) ) ;
#533 = B_SPLINE_CURVE_WITH_KNOTS ( 'NONE', 3,
 ( #821, #660, #1031, #178, #638, #1201 ),
 .UNSPECIFIED., .F., .F.,
 ( 4, 2, 4 ),
 ( 0.0000000000000000000, 0.5000000000000000000, 1.000000000000000000 ),
 .UNSPECIFIED. ) ;
#534 =( LENGTH_UNIT ( ) NAMED_UNIT ( * ) SI_UNIT ( .MILLI., .METRE. ) );
#535 = EDGE_LOOP ( 'NONE', ( #193, #82, #136, #38 ) ) ;
#536 = CARTESIAN_POINT ( 'NONE',  ( -0.9669386624018458942, -0.1750000000000000167, 0.6209529088943716024 ) ) ;
#537 = CARTESIAN_POINT ( 'NONE',  ( 1.237430683999999781, 0.1750000000000000167, 0.1200000000000000233 ) ) ;
#538 = VERTEX_POINT ( 'NONE', #774 ) ;
#539 =( NAMED_UNIT ( * ) PLANE_ANGLE_UNIT ( ) SI_UNIT ( $, .RADIAN. ) );
#540 = EDGE_LOOP ( 'NONE', ( #545, #801, #22, #1119, #988, #1004 ) ) ;
#541 =( LENGTH_UNIT ( ) NAMED_UNIT ( * ) SI_UNIT ( .MILLI., .METRE. ) );
#542 = EDGE_CURVE ( 'NONE', #411, #488, #733, .T. ) ;
#543 = PRESENTATION_STYLE_ASSIGNMENT (( #1013 ) ) ;
#544 = DIRECTION ( 'NONE',  ( 1.000000000000000000, 0.0000000000000000000, -0.0000000000000000000 ) ) ;
#545 = ORIENTED_EDGE ( 'NONE', *, *, #704, .T. ) ;
#546 = CYLINDRICAL_SURFACE ( 'NONE', #466, 0.2199999999007670182 ) ;
#547 = SURFACE_SIDE_STYLE ('',( #1019 ) ) ;
#548 = AXIS2_PLACEMENT_3D ( 'NONE', #490, #1098, #245 ) ;
#549 = DIRECTION ( 'NONE',  ( 0.2425356250128035684, 0.0000000000000000000, -0.9701425001512141710 ) ) ;
#550 = SURFACE_STYLE_FILL_AREA ( #661 ) ;
#551 = ORIENTED_EDGE ( 'NONE', *, *, #463, .T. ) ;
#552 = DIRECTION ( 'NONE',  ( 0.0000000000000000000, 0.9863939238321437486, 0.1643989873053573747 ) ) ;
#553 = MECHANICAL_DESIGN_GEOMETRIC_PRESENTATION_REPRESENTATION (  '', ( #922 ), #1007 ) ;
#554 = CARTESIAN_POINT ( 'NONE',  ( 0.0000000000000000000, -0.1750000000000000167, 0.0000000000000000000 ) ) ;
#555 = ADVANCED_FACE ( 'NONE', ( #113 ), #394, .F. ) ;
#556 = FACE_OUTER_BOUND ( 'NONE', #413, .T. ) ;
#557 = LINE ( 'NONE', #931, #807 ) ;
#558 = ORIENTED_EDGE ( 'NONE', *, *, #694, .T. ) ;
#559 = CARTESIAN_POINT ( 'NONE',  ( 1.084274952074015141, 0.1750000000000000167, 0.6460963995138961913 ) ) ;
#560 = PRESENTATION_STYLE_ASSIGNMENT (( #11 ) ) ;
#561 = B_SPLINE_CURVE_WITH_KNOTS ( 'NONE', 3,
 ( #823, #944, #183, #467 ),
 .UNSPECIFIED., .F., .F.,
 ( 4, 4 ),
 ( 0.0000000000000000000, 1.000000000000000000 ),
 .UNSPECIFIED. ) ;
#562 = DIRECTION ( 'NONE',  ( -0.2095290895954797228, 0.0000000000000000000, -0.9778024138921366237 ) ) ;
#563 =( LENGTH_UNIT ( ) NAMED_UNIT ( * ) SI_UNIT ( .MILLI., .METRE. ) );
#564 = ADVANCED_FACE ( 'NONE', ( #349 ), #429, .T. ) ;
#565 = ORIENTED_EDGE ( 'NONE', *, *, #704, .F. ) ;
#566 = CARTESIAN_POINT ( 'NONE',  ( 0.8695544583778576087, 0.1749999999999999889, 0.8200990093447650953 ) ) ;
#567 = ORIENTED_EDGE ( 'NONE', *, *, #103, .F. ) ;
#568 = DIRECTION ( 'NONE',  ( 0.9701425001512142821, 0.0000000000000000000, 0.2425356250128035962 ) ) ;
#569 = CARTESIAN_POINT ( 'NONE',  ( -0.8996143177426213500, 0.1750000000000000167, 0.6976859052593303856 ) ) ;
#570 = COLOUR_RGB ( '',0.1215686274509803905, 0.1215686274509803905, 0.1215686274509803905 ) ;
#571 = ORIENTED_EDGE ( 'NONE', *, *, #231, .F. ) ;
#572 = VECTOR ( 'NONE', #966, 1000.000000000000000 ) ;
#573 = CARTESIAN_POINT ( 'NONE',  ( 0.9686963342889173267, -0.1750000000000000167, 0.8024297464841168015 ) ) ;
#574 = AXIS2_PLACEMENT_3D ( 'NONE', #19, #310, #790 ) ;
#575 = CARTESIAN_POINT ( 'NONE',  ( -0.9669386624000001484, -0.1750000000000000167, 0.6209529088999999891 ) ) ;
#576 = CARTESIAN_POINT ( 'NONE',  ( 0.8996143177401632052, 0.1750000000000000167, 0.6976859052558950225 ) ) ;
#577 = CARTESIAN_POINT ( 'NONE',  ( -1.092557915632438315, 0.1750000000000000167, 0.03472972902355953712 ) ) ;
#578 = ORIENTED_EDGE ( 'NONE', *, *, #251, .F. ) ;
#579 = CARTESIAN_POINT ( 'NONE',  ( 1.083061337999999818, -0.1750000000000000167, 0.07904709112999999676 ) ) ;
#580 = CARTESIAN_POINT ( 'NONE',  ( -0.3000000000000000444, 0.1916666666666667074, 1.100000000000000089 ) ) ;
#581 = ORIENTED_EDGE ( 'NONE', *, *, #1038, .T. ) ;
#582 = EDGE_CURVE ( 'NONE', #500, #593, #708, .T. ) ;
#583 = PLANE ( 'NONE',  #616 ) ;
#584 = LINE ( 'NONE', #319, #572 ) ;
#585 = FACE_OUTER_BOUND ( 'NONE', #1197, .T. ) ;
#586 = CARTESIAN_POINT ( 'NONE',  ( 0.8000000000000000444, -0.5750000000412311962, 1.100000000010308066 ) ) ;
#587 = ORIENTED_EDGE ( 'NONE', *, *, #898, .F. ) ;
#588 = ADVANCED_FACE ( 'NONE', ( #241 ), #998, .F. ) ;
#589 = CARTESIAN_POINT ( 'NONE',  ( 1.083061337584259487, -0.1750000000000000167, 0.07904709106287707843 ) ) ;
#590 = VERTEX_POINT ( 'NONE', #61 ) ;
#591 = STYLED_ITEM ( 'NONE', ( #925 ), #195 ) ;
#592 = LINE ( 'NONE', #889, #363 ) ;
#593 = VERTEX_POINT ( 'NONE', #1116 ) ;
#594 = AXIS2_PLACEMENT_3D ( 'NONE', #644, #817, #641 ) ;
#595 = CARTESIAN_POINT ( 'NONE',  ( 1.237430683999999781, 0.1750000000000000167, 0.1200000000000000233 ) ) ;
#596 = VECTOR ( 'NONE', #24, 1000.000000000000000 ) ;
#597 = LINE ( 'NONE', #318, #398 ) ;
#598 = DIRECTION ( 'NONE',  ( -0.2095290886967271227, 0.0000000000000000000, 0.9778024140847264567 ) ) ;
#599 = ADVANCED_FACE ( 'NONE', ( #717 ), #637, .T. ) ;
#600 = CARTESIAN_POINT ( 'NONE',  ( -1.300000000000000266, 0.0000000000000000000, 0.0000000000000000000 ) ) ;
#601 = EDGE_LOOP ( 'NONE', ( #175, #226, #813, #337, #1163, #114, #303, #791, #955, #804 ) ) ;
#602 = DIRECTION ( 'NONE',  ( 0.2425356250128035684, 0.0000000000000000000, 0.9701425001512141710 ) ) ;
#603 = FACE_OUTER_BOUND ( 'NONE', #960, .T. ) ;
#604 = DIRECTION ( 'NONE',  ( 0.0000000000000000000, 0.0000000000000000000, 1.000000000000000000 ) ) ;
#605 = ORIENTED_EDGE ( 'NONE', *, *, #718, .F. ) ;
#606 = EDGE_CURVE ( 'NONE', #777, #468, #653, .T. ) ;
#607 = DIRECTION ( 'NONE',  ( -0.0000000000000000000, -1.000000000000000000, -0.0000000000000000000 ) ) ;
#608 = ORIENTED_EDGE ( 'NONE', *, *, #929, .T. ) ;
#609 =( NAMED_UNIT ( * ) PLANE_ANGLE_UNIT ( ) SI_UNIT ( $, .RADIAN. ) );
#610 = B_SPLINE_CURVE_WITH_KNOTS ( 'NONE', 3,
 ( #1138, #1149, #736, #305 ),
 .UNSPECIFIED., .F., .F.,
 ( 4, 4 ),
 ( 0.0000000000000000000, 1.000000000000000000 ),
 .UNSPECIFIED. ) ;
#611 = CARTESIAN_POINT ( 'NONE',  ( -0.3000000000000000444, 0.5750000000068719030, 1.102500000001717773 ) ) ;
#612 = ORIENTED_EDGE ( 'NONE', *, *, #1038, .F. ) ;
#613 = FACE_OUTER_BOUND ( 'NONE', #601, .T. ) ;
#614 = MECHANICAL_DESIGN_GEOMETRIC_PRESENTATION_REPRESENTATION (  '', ( #1145 ), #758 ) ;
#615 = STYLED_ITEM ( 'NONE', ( #560 ), #30 ) ;
#616 = AXIS2_PLACEMENT_3D ( 'NONE', #963, #979, #133 ) ;
#617 =( GEOMETRIC_REPRESENTATION_CONTEXT ( 3 ) GLOBAL_UNCERTAINTY_ASSIGNED_CONTEXT ( ( #1104 ) ) GLOBAL_UNIT_ASSIGNED_CONTEXT ( ( #1022, #837, #1137 ) ) REPRESENTATION_CONTEXT ( 'NONE', 'WORKASPACE' ) );
#618 = CARTESIAN_POINT ( 'NONE',  ( -0.9669386624025001487, 0.1750000000000000167, 0.6209529088924999884 ) ) ;
#619 = ORIENTED_EDGE ( 'NONE', *, *, #21, .T. ) ;
#620 = SURFACE_SIDE_STYLE ('',( #126 ) ) ;
#621 = LINE ( 'NONE', #145, #1108 ) ;
#622 = EDGE_CURVE ( 'NONE', #1178, #867, #476, .T. ) ;
#623 = ORIENTED_EDGE ( 'NONE', *, *, #369, .F. ) ;
#624 = CARTESIAN_POINT ( 'NONE',  ( 0.0000000000000000000, -0.5750000000443878934, 0.09999999999260206218 ) ) ;
#625 = ORIENTED_EDGE ( 'NONE', *, *, #508, .F. ) ;
#626 = FILL_AREA_STYLE_COLOUR ( '', #188 ) ;
#627 = CARTESIAN_POINT ( 'NONE',  ( -1.193288852795429511, -0.1750000000000000167, 0.1373648647963891800 ) ) ;
#628 = EDGE_CURVE ( 'NONE', #320, #502, #408, .T. ) ;
#629 = CARTESIAN_POINT ( 'NONE',  ( -0.9669386624025001487, 0.1750000000000000167, 0.6209529088924999884 ) ) ;
#630 = VERTEX_POINT ( 'NONE', #537 ) ;
#631 = UNCERTAINTY_MEASURE_WITH_UNIT (LENGTH_MEASURE( 1.000000000000000082E-05 ), #1027, 'distance_accuracy_value', 'NONE');
#632 =( GEOMETRIC_REPRESENTATION_CONTEXT ( 3 ) GLOBAL_UNCERTAINTY_ASSIGNED_CONTEXT ( ( #1014 ) ) GLOBAL_UNIT_ASSIGNED_CONTEXT ( ( #372, #1208, #738 ) ) REPRESENTATION_CONTEXT ( 'NONE', 'WORKASPACE' ) );
#633 = EDGE_CURVE ( 'NONE', #1114, #249, #164, .T. ) ;
#634 = CARTESIAN_POINT ( 'NONE',  ( -1.084274952024330663, 0.1750000000000000167, 0.6460963995048565334 ) ) ;
#635 = ORIENTED_EDGE ( 'NONE', *, *, #186, .T. ) ;
#636 = DIRECTION ( 'NONE',  ( -0.0000000000000000000, 1.000000000000000000, 0.0000000000000000000 ) ) ;
#637 = PLANE ( 'NONE',  #594 ) ;
#638 = CARTESIAN_POINT ( 'NONE',  ( -1.073828716601159083, 0.1750000000000000444, 0.6948454980279261672 ) ) ;
#639 = ORIENTED_EDGE ( 'NONE', *, *, #430, .T. ) ;
#640 = EDGE_CURVE ( 'NONE', #590, #974, #269, .T. ) ;
#641 = DIRECTION ( 'NONE',  ( -0.1643989873053573469, 0.0000000000000000000, -0.9863939238321436376 ) ) ;
#642 = CARTESIAN_POINT ( 'NONE',  ( -1.083061337681877623, 0.1750000000000000167, 0.07904709108379522065 ) ) ;
#643 = DIRECTION ( 'NONE',  ( 0.0000000000000000000, 0.0000000000000000000, 1.000000000000000000 ) ) ;
#644 = CARTESIAN_POINT ( 'NONE',  ( 0.7621621621522984835, 0.0000000000000000000, -0.1270270270253831546 ) ) ;
#645 = ADVANCED_FACE ( 'NONE', ( #814 ), #367, .F. ) ;
#646 = COLOUR_RGB ( '',0.1215686274509803905, 0.1215686274509803905, 0.1215686274509803905 ) ;
#647 = PRESENTATION_STYLE_ASSIGNMENT (( #1117 ) ) ;
#648 = PLANE ( 'NONE',  #469 ) ;
#649 = MECHANICAL_DESIGN_GEOMETRIC_PRESENTATION_REPRESENTATION (  '', ( #615 ), #785 ) ;
#650 = APPLICATION_PROTOCOL_DEFINITION ( 'draft international standard', 'automotive_design', 1998, #72 ) ;
#651 = VECTOR ( 'NONE', #1189, 1000.000000000000000 ) ;
#652 = CARTESIAN_POINT ( 'NONE',  ( -1.051707316590231533, 0.0000000000000000000, 0.2253658535166359889 ) ) ;
#653 = LINE ( 'NONE', #1006, #1086 ) ;
#654 = UNCERTAINTY_MEASURE_WITH_UNIT (LENGTH_MEASURE( 1.000000000000000082E-05 ), #563, 'distance_accuracy_value', 'NONE');
#655 = ADVANCED_FACE ( 'NONE', ( #477 ), #921, .T. ) ;
#656 = CARTESIAN_POINT ( 'NONE',  ( -1.300000000000000266, 0.0000000000000000000, -0.0000000000000000000 ) ) ;
#657 =( NAMED_UNIT ( * ) SI_UNIT ( $, .STERADIAN. ) SOLID_ANGLE_UNIT ( ) );
#658 = LINE ( 'NONE', #579, #397 ) ;
#659 = CARTESIAN_POINT ( 'NONE',  ( -0.8695544583778574976, -0.1749999999999999889, 0.8200990093116875546 ) ) ;
#660 = CARTESIAN_POINT ( 'NONE',  ( -0.9190141974084909959, 0.1750000000000000167, 0.8199999999007669960 ) ) ;
#661 = FILL_AREA_STYLE ('',( #286 ) ) ;
#662 = ORIENTED_EDGE ( 'NONE', *, *, #291, .F. ) ;
#663 = DIRECTION ( 'NONE',  ( 0.2095290886967271227, 0.0000000000000000000, 0.9778024140847264567 ) ) ;
#664 = CARTESIAN_POINT ( 'NONE',  ( -0.8996143177413211678, -0.1750000000000000167, 0.6976859052595673072 ) ) ;
#665 = CARTESIAN_POINT ( 'NONE',  ( 0.8000000004074599991, 0.5750000000000000666, 1.100000000101865050 ) ) ;
#666 = CARTESIAN_POINT ( 'NONE',  ( 0.9669386623905509293, 0.1750000000000000167, 0.6209529088919512052 ) ) ;
#667 = VERTEX_POINT ( 'NONE', #842 ) ;
#668 = COLOUR_RGB ( '',0.1215686274509803905, 0.1215686274509803905, 0.1215686274509803905 ) ;
#669 = VECTOR ( 'NONE', #316, 1000.000000000000000 ) ;
#670 = CARTESIAN_POINT ( 'NONE',  ( -1.300000000000000266, 0.1750000000000000167, 0.0000000000000000000 ) ) ;
#671 = ADVANCED_FACE ( 'NONE', ( #79 ), #453, .F. ) ;
#672 = MECHANICAL_DESIGN_GEOMETRIC_PRESENTATION_REPRESENTATION (  '', ( #884 ), #39 ) ;
#673 = CARTESIAN_POINT ( 'NONE',  ( 0.0000000000000000000, 0.5432432432876310724, -0.09054054054793857220 ) ) ;
#674 = ORIENTED_EDGE ( 'NONE', *, *, #694, .F. ) ;
#675 = PLANE ( 'NONE',  #990 ) ;
#676 = ORIENTED_EDGE ( 'NONE', *, *, #802, .F. ) ;
#677 = CARTESIAN_POINT ( 'NONE',  ( -0.9669386624018458942, -0.1750000000000000167, 0.6209529088943716024 ) ) ;
#678 = LINE ( 'NONE', #405, #596 ) ;
#679 = ORIENTED_EDGE ( 'NONE', *, *, #123, .F. ) ;
#680 = CARTESIAN_POINT ( 'NONE',  ( 0.9669386623912051837, -0.1750000000000000167, 0.6209529088900798133 ) ) ;
#681 = SURFACE_STYLE_USAGE ( .BOTH. , #289 ) ;
#682 = CARTESIAN_POINT ( 'NONE',  ( -0.8000000004074599991, 0.1916666666666667074, 1.100000000101865050 ) ) ;
#683 = EDGE_LOOP ( 'NONE', ( #945, #8, #211, #1158 ) ) ;
#684 = CARTESIAN_POINT ( 'NONE',  ( -1.188540564000000410, -0.1750000000000000167, 0.1595235456000000107 ) ) ;
#685 = EDGE_CURVE ( 'NONE', #867, #50, #73, .T. ) ;
#686 = FACE_OUTER_BOUND ( 'NONE', #540, .T. ) ;
#687 = VERTEX_POINT ( 'NONE', #373 ) ;
#688 = VECTOR ( 'NONE', #65, 1000.000000000000000 ) ;
#689 = CARTESIAN_POINT ( 'NONE',  ( -0.8000000001358199553, 0.5750000000068719030, 1.102500000035673056 ) ) ;
#690 = ORIENTED_EDGE ( 'NONE', *, *, #21, .F. ) ;
#691 = LINE ( 'NONE', #701, #60 ) ;
#692 = VECTOR ( 'NONE', #511, 1000.000000000000000 ) ;
#693 = DIRECTION ( 'NONE',  ( 0.2095290886967271227, 0.0000000000000000000, 0.9778024140847264567 ) ) ;
#694 = EDGE_CURVE ( 'NONE', #521, #427, #450, .T. ) ;
#695 = FACE_OUTER_BOUND ( 'NONE', #851, .T. ) ;
#696 = ORIENTED_EDGE ( 'NONE', *, *, #48, .T. ) ;
#697 = CARTESIAN_POINT ( 'NONE',  ( -0.8695544583768102243, 0.1750000000000000444, 0.8200990093111149015 ) ) ;
#698 = CARTESIAN_POINT ( 'NONE',  ( -1.237430683998515635, 0.1750000000000000167, 0.1200000001737807076 ) ) ;
#699 = CARTESIAN_POINT ( 'NONE',  ( 0.7999999999901362679, 0.0000000000000000000, 0.1000000000016439683 ) ) ;
#700 = ORIENTED_EDGE ( 'NONE', *, *, #1214, .F. ) ;
#701 = CARTESIAN_POINT ( 'NONE',  ( -1.188540564000000410, 0.0000000000000000000, 0.1595235456000000107 ) ) ;
#702 = SURFACE_STYLE_USAGE ( .BOTH. , #260 ) ;
#703 = ORIENTED_EDGE ( 'NONE', *, *, #374, .F. ) ;
#704 = EDGE_CURVE ( 'NONE', #667, #500, #834, .T. ) ;
#705 = CARTESIAN_POINT ( 'NONE',  ( -0.9000000003977585150, 0.6750000000000001554, 0.7000000000994398563 ) ) ;
#706 = COLOUR_RGB ( '',0.6196078431372549211, 0.6196078431372549211, 0.6196078431372549211 ) ;
#707 = PRESENTATION_LAYER_ASSIGNMENT (  '', '', ( #884 ) ) ;
#708 = LINE ( 'NONE', #1094, #1025 ) ;
#709 = VERTEX_POINT ( 'NONE', #826 ) ;
#710 = DIRECTION ( 'NONE',  ( 0.0000000000000000000, 0.0000000000000000000, 1.000000000000000000 ) ) ;
#711 = VERTEX_POINT ( 'NONE', #928 ) ;
#712 = CARTESIAN_POINT ( 'NONE',  ( 1.193288852181060067, 0.1750000000000000167, 0.1373648643421708782 ) ) ;
#713 = EDGE_CURVE ( 'NONE', #1142, #1178, #1135, .T. ) ;
#714 = CARTESIAN_POINT ( 'NONE',  ( 1.051707316590231533, 0.0000000000000000000, 0.2253658535166359889 ) ) ;
#715 = CARTESIAN_POINT ( 'NONE',  ( 1.135518145908400278, -0.1750000000000000167, -5.550519726199730450E-18 ) ) ;
#716 = ORIENTED_EDGE ( 'NONE', *, *, #526, .F. ) ;
#717 = FACE_OUTER_BOUND ( 'NONE', #152, .T. ) ;
#718 = EDGE_CURVE ( 'NONE', #322, #1078, #1209, .T. ) ;
#719 = B_SPLINE_CURVE_WITH_KNOTS ( 'NONE', 3,
 ( #361, #715, #720, #49 ),
 .UNSPECIFIED., .F., .F.,
 ( 4, 4 ),
 ( 0.0000000000000000000, 1.000000000000000000 ),
 .UNSPECIFIED. ) ;
#720 = CARTESIAN_POINT ( 'NONE',  ( 1.092557915279889214, -0.1750000000000000167, 0.03472972876291141597 ) ) ;
#721 = ORIENTED_EDGE ( 'NONE', *, *, #1150, .F. ) ;
#722 = B_SPLINE_CURVE_WITH_KNOTS ( 'NONE', 3,
 ( #664, #1133, #26, #659 ),
 .UNSPECIFIED., .F., .F.,
 ( 4, 4 ),
 ( 0.0000000000000000000, 1.000000000000000000 ),
 .UNSPECIFIED. ) ;
#723 = FILL_AREA_STYLE ('',( #626 ) ) ;
#724 = VECTOR ( 'NONE', #885, 1000.000000000000227 ) ;
#725 = COLOUR_RGB ( '',0.1215686274509803905, 0.1215686274509803905, 0.1215686274509803905 ) ;
#726 = VECTOR ( 'NONE', #520, 1000.000000000000000 ) ;
#727 = EDGE_CURVE ( 'NONE', #1097, #1142, #533, .T. ) ;
#728 = PLANE ( 'NONE',  #257 ) ;
#729 = ORIENTED_EDGE ( 'NONE', *, *, #606, .F. ) ;
#730 = SURFACE_STYLE_FILL_AREA ( #270 ) ;
#731 = CARTESIAN_POINT ( 'NONE',  ( 0.8999999999901364678, 0.6750000000000001554, 0.7000000000016440849 ) ) ;
#732 = ORIENTED_EDGE ( 'NONE', *, *, #1018, .F. ) ;
#733 = B_SPLINE_CURVE_WITH_KNOTS ( 'NONE', 3,
 ( #1162, #217, #627, #806 ),
 .UNSPECIFIED., .F., .F.,
 ( 4, 4 ),
 ( 0.0000000000000000000, 1.000000000000000000 ),
 .UNSPECIFIED. ) ;
#734 = SURFACE_SIDE_STYLE ('',( #550 ) ) ;
#735 = ORIENTED_EDGE ( 'NONE', *, *, #1018, .T. ) ;
#736 = CARTESIAN_POINT ( 'NONE',  ( -1.135518146089393277, -0.1750000000000000167, 3.993366565370067614E-10 ) ) ;
#737 = ADVANCED_FACE ( 'NONE', ( #942 ), #849, .F. ) ;
#738 =( NAMED_UNIT ( * ) SI_UNIT ( $, .STERADIAN. ) SOLID_ANGLE_UNIT ( ) );
#739 = DIRECTION ( 'NONE',  ( 0.0000000000000000000, -0.0000000000000000000, 1.000000000000000000 ) ) ;
#740 = CARTESIAN_POINT ( 'NONE',  ( 0.8996143177401632052, 0.1750000000000000167, 0.6976859052558950225 ) ) ;
#741 = ORIENTED_EDGE ( 'NONE', *, *, #80, .T. ) ;
#742 = AXIS2_PLACEMENT_3D ( 'NONE', #1017, #552, #1005 ) ;
#743 = CARTESIAN_POINT ( 'NONE',  ( 0.9675229471601056730, 0.1750000000000000167, 0.8036454911719155270 ) ) ;
#744 = CARTESIAN_POINT ( 'NONE',  ( -1.300000000000000266, 0.1750000000000000167, 0.1200000000000000233 ) ) ;
#745 = CARTESIAN_POINT ( 'NONE',  ( 0.0000000000000000000, 0.1750000000000000167, 0.1200000000000000233 ) ) ;
#746 = B_SPLINE_CURVE_WITH_KNOTS ( 'NONE', 3,
 ( #44, #1054, #142, #225 ),
 .UNSPECIFIED., .F., .F.,
 ( 4, 4 ),
 ( 0.0000000000000000000, 1.000000000000000000 ),
 .UNSPECIFIED. ) ;
#747 = VERTEX_POINT ( 'NONE', #1015 ) ;
#748 = LINE ( 'NONE', #287, #435 ) ;
#749 = FACE_OUTER_BOUND ( 'NONE', #762, .T. ) ;
#750 = ADVANCED_FACE ( 'NONE', ( #773 ), #950, .T. ) ;
#751 = CARTESIAN_POINT ( 'NONE',  ( -1.300000000000000266, 0.1750000000000000167, 0.0000000000000000000 ) ) ;
#752 = ORIENTED_EDGE ( 'NONE', *, *, #171, .F. ) ;
#753 = CARTESIAN_POINT ( 'NONE',  ( 1.073828716693476792, -0.1750000000000000444, 0.6948454980707070572 ) ) ;
#754 = VERTEX_POINT ( 'NONE', #127 ) ;
#755 = DIRECTION ( 'NONE',  ( 0.0000000000000000000, 0.0000000000000000000, 1.000000000000000000 ) ) ;
#756 = DIRECTION ( 'NONE',  ( -0.2095290886967271227, 0.0000000000000000000, 0.9778024140847264567 ) ) ;
#757 = ORIENTED_EDGE ( 'NONE', *, *, #948, .T. ) ;
#758 =( GEOMETRIC_REPRESENTATION_CONTEXT ( 3 ) GLOBAL_UNCERTAINTY_ASSIGNED_CONTEXT ( ( #62 ) ) GLOBAL_UNIT_ASSIGNED_CONTEXT ( ( #912, #1024, #353 ) ) REPRESENTATION_CONTEXT ( 'NONE', 'WORKASPACE' ) );
#759 = CARTESIAN_POINT ( 'NONE',  ( -0.9595752919062938702, -0.1750000000000000167, 0.6553153044904392877 ) ) ;
#760 = VECTOR ( 'NONE', #190, 1000.000000000000000 ) ;
#761 = CARTESIAN_POINT ( 'NONE',  ( 0.7999999999934240824, 0.5750000000000000666, 0.1000000000010959900 ) ) ;
#762 = EDGE_LOOP ( 'NONE', ( #162, #863, #838, #108 ) ) ;
#763 = B_SPLINE_CURVE_WITH_KNOTS ( 'NONE', 3,
 ( #954, #580, #1179, #794 ),
 .UNSPECIFIED., .F., .F.,
 ( 4, 4 ),
 ( 0.0000000000000000000, 1.000000000000000000 ),
 .UNSPECIFIED. ) ;
#764 = COLOUR_RGB ( '',0.6196078431372549211, 0.6196078431372549211, 0.6196078431372549211 ) ;
#765 = DIRECTION ( 'NONE',  ( 0.0000000000000000000, 0.9863939238321437486, -0.1643989873053573747 ) ) ;
#766 = CARTESIAN_POINT ( 'NONE',  ( 1.084274952097030287, 0.0000000000000000000, 0.6460963995207922306 ) ) ;
#767 = CARTESIAN_POINT ( 'NONE',  ( 0.8695544583768100022, -0.1750000000000000444, 0.8200990093441924422 ) ) ;
#768 = ORIENTED_EDGE ( 'NONE', *, *, #983, .F. ) ;
#769 = SURFACE_STYLE_USAGE ( .BOTH. , #403 ) ;
#770 = LINE ( 'NONE', #229, #40 ) ;
#771 = ORIENTED_EDGE ( 'NONE', *, *, #374, .T. ) ;
#772 = LINE ( 'NONE', #475, #820 ) ;
#773 = FACE_OUTER_BOUND ( 'NONE', #858, .T. ) ;
#774 = CARTESIAN_POINT ( 'NONE',  ( -0.3000000000000000444, 0.5750000000068719030, 1.102500000001717773 ) ) ;
#775 = VERTEX_POINT ( 'NONE', #589 ) ;
#776 = LINE ( 'NONE', #699, #345 ) ;
#777 = VERTEX_POINT ( 'NONE', #870 ) ;
#778 = ADVANCED_BREP_SHAPE_REPRESENTATION ( 'User Library-SOD-323', ( #487, #868 ), #617 ) ;
#779 = EDGE_CURVE ( 'NONE', #853, #974, #1140, .T. ) ;
#780 = DIRECTION ( 'NONE',  ( -0.1622214211307627663, 0.1622214211307625720, 0.9733285267845751543 ) ) ;
#781 = ORIENTED_EDGE ( 'NONE', *, *, #542, .F. ) ;
#782 =( GEOMETRIC_REPRESENTATION_CONTEXT ( 3 ) GLOBAL_UNCERTAINTY_ASSIGNED_CONTEXT ( ( #376 ) ) GLOBAL_UNIT_ASSIGNED_CONTEXT ( ( #1174, #609, #891 ) ) REPRESENTATION_CONTEXT ( 'NONE', 'WORKASPACE' ) );
#783 = LINE ( 'NONE', #306, #235 ) ;
#784 = AXIS2_PLACEMENT_3D ( 'NONE', #714, #800, #756 ) ;
#785 =( GEOMETRIC_REPRESENTATION_CONTEXT ( 3 ) GLOBAL_UNCERTAINTY_ASSIGNED_CONTEXT ( ( #833 ) ) GLOBAL_UNIT_ASSIGNED_CONTEXT ( ( #118, #934, #1056 ) ) REPRESENTATION_CONTEXT ( 'NONE', 'WORKASPACE' ) );
#786 = SURFACE_STYLE_USAGE ( .BOTH. , #620 ) ;
#787 = COLOUR_RGB ( '',0.1215686274509803905, 0.1215686274509803905, 0.1215686274509803905 ) ;
#788 = MECHANICAL_DESIGN_GEOMETRIC_PRESENTATION_REPRESENTATION (  '', ( #1170 ), #822 ) ;
#789 = VECTOR ( 'NONE', #1125, 1000.000000000000000 ) ;
#790 = DIRECTION ( 'NONE',  ( 0.0000000000000000000, -0.0000000000000000000, 1.000000000000000000 ) ) ;
#791 = ORIENTED_EDGE ( 'NONE', *, *, #727, .F. ) ;
#792 = CARTESIAN_POINT ( 'NONE',  ( -0.7999999999901362679, 0.5750000000000000666, 0.1000000000010959761 ) ) ;
#793 = ORIENTED_EDGE ( 'NONE', *, *, #354, .T. ) ;
#794 = CARTESIAN_POINT ( 'NONE',  ( -0.3000000000000000444, -0.5750000000137438505, 1.102500000003435954 ) ) ;
#795 = VERTEX_POINT ( 'NONE', #414 ) ;
#796 = EDGE_CURVE ( 'NONE', #910, #590, #597, .T. ) ;
#797 = FACE_OUTER_BOUND ( 'NONE', #432, .T. ) ;
#798 = ORIENTED_EDGE ( 'NONE', *, *, #71, .F. ) ;
#799 = PLANE ( 'NONE',  #418 ) ;
#800 = DIRECTION ( 'NONE',  ( -0.9778024140847265677, 0.0000000000000000000, -0.2095290886967271504 ) ) ;
#801 = ORIENTED_EDGE ( 'NONE', *, *, #919, .T. ) ;
#802 = EDGE_CURVE ( 'NONE', #249, #711, #120, .T. ) ;
#803 = PLANE ( 'NONE',  #236 ) ;
#804 = ORIENTED_EDGE ( 'NONE', *, *, #1159, .F. ) ;
#805 = AXIS2_PLACEMENT_3D ( 'NONE', #1139, #309, #181 ) ;
#806 = CARTESIAN_POINT ( 'NONE',  ( -1.188540563824252105, -0.1750000000000000167, 0.1595235455898397214 ) ) ;
#807 = VECTOR ( 'NONE', #1028, 1000.000000000000000 ) ;
#808 = CARTESIAN_POINT ( 'NONE',  ( 0.0000000000000000000, 0.1750000000000000167, 0.1200000000000000233 ) ) ;
#809 = ORIENTED_EDGE ( 'NONE', *, *, #1002, .T. ) ;
#810 = ADVANCED_FACE ( 'NONE', ( #686 ), #31, .T. ) ;
#811 = CARTESIAN_POINT ( 'NONE',  ( 1.237430683998515635, -0.1750000000000000167, 0.1199999999998047490 ) ) ;
#812 = PRESENTATION_STYLE_ASSIGNMENT (( #702 ) ) ;
#813 = ORIENTED_EDGE ( 'NONE', *, *, #1202, .F. ) ;
#814 = FACE_OUTER_BOUND ( 'NONE', #1205, .T. ) ;
#815 = VERTEX_POINT ( 'NONE', #326 ) ;
#816 = CARTESIAN_POINT ( 'NONE',  ( 1.300000000000000266, -0.1750000000000000167, 0.1200000000000000233 ) ) ;
#817 = DIRECTION ( 'NONE',  ( 0.9863939238321437486, 0.0000000000000000000, -0.1643989873053573747 ) ) ;
#818 = PRESENTATION_LAYER_ASSIGNMENT (  '', '', ( #271 ) ) ;
#819 = AXIS2_PLACEMENT_3D ( 'NONE', #456, #172, #1141 ) ;
#820 = VECTOR ( 'NONE', #1160, 1000.000000000000000 ) ;
#821 = CARTESIAN_POINT ( 'NONE',  ( -0.8695544583768102243, 0.1750000000000000444, 0.8200990093111149015 ) ) ;
#822 =( GEOMETRIC_REPRESENTATION_CONTEXT ( 3 ) GLOBAL_UNCERTAINTY_ASSIGNED_CONTEXT ( ( #888 ) ) GLOBAL_UNIT_ASSIGNED_CONTEXT ( ( #534, #539, #445 ) ) REPRESENTATION_CONTEXT ( 'NONE', 'WORKASPACE' ) );
#823 = CARTESIAN_POINT ( 'NONE',  ( 0.8695544583778576087, 0.1749999999999999889, 0.8200990093447650953 ) ) ;
#824 = ORIENTED_EDGE ( 'NONE', *, *, #965, .F. ) ;
#825 = SURFACE_SIDE_STYLE ('',( #255 ) ) ;
#826 = CARTESIAN_POINT ( 'NONE',  ( -1.180841579000000197, -0.1750000000000000167, 1.992777924825824692E-10 ) ) ;
#827 = PRESENTATION_STYLE_ASSIGNMENT (( #930 ) ) ;
#828 = EDGE_CURVE ( 'NONE', #687, #754, #1146, .T. ) ;
#829 = PRESENTATION_STYLE_ASSIGNMENT (( #174 ) ) ;
#830 = EDGE_LOOP ( 'NONE', ( #625, #131, #721, #307, #200, #122, #230, #880, #608, #170 ) ) ;
#831 = DIRECTION ( 'NONE',  ( 0.0000000000000000000, -0.2425356250128035684, -0.9701425001512141710 ) ) ;
#832 = FILL_AREA_STYLE ('',( #1111 ) ) ;
#833 = UNCERTAINTY_MEASURE_WITH_UNIT (LENGTH_MEASURE( 1.000000000000000082E-05 ), #118, 'distance_accuracy_value', 'NONE');
#834 = LINE ( 'NONE', #277, #1185 ) ;
#835 = DIRECTION ( 'NONE',  ( -1.000000000000000000, 0.0000000000000000000, -0.0000000000000000000 ) ) ;
#836 = B_SPLINE_CURVE_WITH_KNOTS ( 'NONE', 3,
 ( #970, #314, #682, #689 ),
 .UNSPECIFIED., .F., .F.,
 ( 4, 4 ),
 ( 0.0000000000000000000, 1.000000000000000000 ),
 .UNSPECIFIED. ) ;
#837 =( NAMED_UNIT ( * ) PLANE_ANGLE_UNIT ( ) SI_UNIT ( $, .RADIAN. ) );
#838 = ORIENTED_EDGE ( 'NONE', *, *, #348, .F. ) ;
#839 = ADVANCED_FACE ( 'NONE', ( #299 ), #675, .T. ) ;
#840 = CARTESIAN_POINT ( 'NONE',  ( 1.188540563483521995, -0.1750000000000000167, 0.1595235455183439399 ) ) ;
#841 = DIRECTION ( 'NONE',  ( 0.0000000000000000000, 0.1643989873053573469, 0.9863939238321436376 ) ) ;
#842 = CARTESIAN_POINT ( 'NONE',  ( -0.7999999999967120079, -0.5750000000443878934, 0.09999999999561604014 ) ) ;
#843 = CARTESIAN_POINT ( 'NONE',  ( -0.3000000000000000444, -0.5750000000137438505, 1.102500000003435954 ) ) ;
#844 = VERTEX_POINT ( 'NONE', #489 ) ;
#845 = MECHANICAL_DESIGN_GEOMETRIC_PRESENTATION_REPRESENTATION (  '', ( #271 ), #782 ) ;
#846 = LINE ( 'NONE', #386, #1126 ) ;
#847 = LINE ( 'NONE', #4, #881 ) ;
#848 = EDGE_CURVE ( 'NONE', #68, #590, #1074, .T. ) ;
#849 = CYLINDRICAL_SURFACE ( 'NONE', #1216, 0.04999999930409610577 ) ;
#850 = CARTESIAN_POINT ( 'NONE',  ( -1.083061337135983404, 0.0000000000000000000, 0.07904709094485362630 ) ) ;
#851 = EDGE_LOOP ( 'NONE', ( #567, #344, #732, #396 ) ) ;
#852 = CARTESIAN_POINT ( 'NONE',  ( 1.237430683999999781, 0.0000000000000000000, 0.1200000000000000233 ) ) ;
#853 = VERTEX_POINT ( 'NONE', #223 ) ;
#854 = FILL_AREA_STYLE ('',( #464 ) ) ;
#855 = ADVANCED_FACE ( 'NONE', ( #603 ), #583, .T. ) ;
#856 = LINE ( 'NONE', #478, #1183 ) ;
#857 = SHAPE_DEFINITION_REPRESENTATION ( #1166, #778 ) ;
#858 = EDGE_LOOP ( 'NONE', ( #392, #605, #485, #161 ) ) ;
#859 = CARTESIAN_POINT ( 'NONE',  ( 0.8695544583768100022, -0.1750000000000000444, 0.8200990093441924422 ) ) ;
#860 = ORIENTED_EDGE ( 'NONE', *, *, #606, .T. ) ;
#861 = SURFACE_STYLE_FILL_AREA ( #311 ) ;
#862 = VECTOR ( 'NONE', #290, 1000.000000000000000 ) ;
#863 = ORIENTED_EDGE ( 'NONE', *, *, #828, .F. ) ;
#864 = ADVANCED_FACE ( 'NONE', ( #879 ), #401, .T. ) ;
#865 = CARTESIAN_POINT ( 'NONE',  ( -0.8996143177413211678, -0.1750000000000000167, 0.6976859052595673072 ) ) ;
#866 = LINE ( 'NONE', #586, #1091 ) ;
#867 = VERTEX_POINT ( 'NONE', #698 ) ;
#868 = AXIS2_PLACEMENT_3D ( 'NONE', #1046, #604, #499 ) ;
#869 = CARTESIAN_POINT ( 'NONE',  ( 1.188540563484023815, 0.1750000000000000167, 0.1595235455169336514 ) ) ;
#870 = CARTESIAN_POINT ( 'NONE',  ( 0.9669386623912051837, -0.1750000000000000167, 0.6209529088900798133 ) ) ;
#871 = ORIENTED_EDGE ( 'NONE', *, *, #508, .T. ) ;
#872 = EDGE_CURVE ( 'NONE', #844, #25, #978, .T. ) ;
#873 = DIRECTION ( 'NONE',  ( 0.0000000000000000000, -1.000000000000000000, -0.0000000000000000000 ) ) ;
#874 = EDGE_LOOP ( 'NONE', ( #481, #101, #871, #346 ) ) ;
#875 = CARTESIAN_POINT ( 'NONE',  ( 1.188540563484023815, 0.1750000000000000167, 0.1595235455169336514 ) ) ;
#876 = CARTESIAN_POINT ( 'NONE',  ( 0.0000000000000000000, 0.1750000000000000167, 0.0000000000000000000 ) ) ;
#877 = ORIENTED_EDGE ( 'NONE', *, *, #291, .T. ) ;
#878 = FILL_AREA_STYLE_COLOUR ( '', #218 ) ;
#879 = FACE_OUTER_BOUND ( 'NONE', #830, .T. ) ;
#880 = ORIENTED_EDGE ( 'NONE', *, *, #473, .F. ) ;
#881 = VECTOR ( 'NONE', #1063, 1000.000000000000000 ) ;
#882 = CARTESIAN_POINT ( 'NONE',  ( -1.073014505067017010, -0.1750000000000000444, 0.6968642075824658111 ) ) ;
#883 = ORIENTED_EDGE ( 'NONE', *, *, #919, .F. ) ;
#884 = STYLED_ITEM ( 'NONE', ( #647 ), #655 ) ;
#885 = DIRECTION ( 'NONE',  ( 0.2095290895954797228, 0.0000000000000000000, -0.9778024138921366237 ) ) ;
#886 = VECTOR ( 'NONE', #423, 1000.000000000000000 ) ;
#887 = EDGE_CURVE ( 'NONE', #356, #125, #1151, .T. ) ;
#888 = UNCERTAINTY_MEASURE_WITH_UNIT (LENGTH_MEASURE( 1.000000000000000082E-05 ), #534, 'distance_accuracy_value', 'NONE');
#889 = CARTESIAN_POINT ( 'NONE',  ( -0.9000000003977585150, 0.0000000000000000000, 0.7000000000994398563 ) ) ;
#890 = ORIENTED_EDGE ( 'NONE', *, *, #276, .T. ) ;
#891 =( NAMED_UNIT ( * ) SI_UNIT ( $, .STERADIAN. ) SOLID_ANGLE_UNIT ( ) );
#892 = CARTESIAN_POINT ( 'NONE',  ( 0.9595752918854051350, 0.1750000000000000167, 0.6553153044776600655 ) ) ;
#893 = PRODUCT_RELATED_PRODUCT_CATEGORY ( 'part', '', ( #985 ) ) ;
#894 = LINE ( 'NONE', #624, #946 ) ;
#895 = ORIENTED_EDGE ( 'NONE', *, *, #1159, .T. ) ;
#896 = SURFACE_SIDE_STYLE ('',( #524 ) ) ;
#897 = CARTESIAN_POINT ( 'NONE',  ( 0.8899834988497121735, -0.1750000000000000167, 0.7400660062957549190 ) ) ;
#898 = EDGE_CURVE ( 'NONE', #512, #709, #41, .T. ) ;
#899 = CYLINDRICAL_SURFACE ( 'NONE', #519, 0.09999999997496722415 ) ;
#900 = ORIENTED_EDGE ( 'NONE', *, *, #231, .T. ) ;
#901 = CARTESIAN_POINT ( 'NONE',  ( 0.8695544583768100022, -0.1750000000000000444, 0.8200990093441924422 ) ) ;
#902 = VECTOR ( 'NONE', #284, 1000.000000000000000 ) ;
#903 = AXIS2_PLACEMENT_3D ( 'NONE', #288, #949, #755 ) ;
#904 = CARTESIAN_POINT ( 'NONE',  ( -0.8996143177426213500, 0.1750000000000000167, 0.6976859052593303856 ) ) ;
#905 = ORIENTED_EDGE ( 'NONE', *, *, #383, .F. ) ;
#906 = EDGE_CURVE ( 'NONE', #521, #415, #783, .T. ) ;
#907 = DIRECTION ( 'NONE',  ( 1.000000000000000000, 0.0000000000000000000, 0.0000000000000000000 ) ) ;
#908 = PRODUCT_DEFINITION_CONTEXT ( 'detailed design', #496, 'design' ) ;
#909 = SURFACE_STYLE_FILL_AREA ( #57 ) ;
#910 = VERTEX_POINT ( 'NONE', #792 ) ;
#911 =( NAMED_UNIT ( * ) PLANE_ANGLE_UNIT ( ) SI_UNIT ( $, .RADIAN. ) );
#912 =( LENGTH_UNIT ( ) NAMED_UNIT ( * ) SI_UNIT ( .MILLI., .METRE. ) );
#913 = DIRECTION ( 'NONE',  ( 1.000000000000000000, 0.0000000000000000000, -0.0000000000000000000 ) ) ;
#914 = VERTEX_POINT ( 'NONE', #513 ) ;
#915 = CYLINDRICAL_SURFACE ( 'NONE', #36, 0.1000000000000000056 ) ;
#916 = CARTESIAN_POINT ( 'NONE',  ( 1.214768967477713568, -0.1750000000000000167, 0.1200000000000000233 ) ) ;
#917 = VECTOR ( 'NONE', #6, 1000.000000000000000 ) ;
#918 = PRESENTATION_LAYER_ASSIGNMENT (  '', '', ( #139 ) ) ;
#919 = EDGE_CURVE ( 'NONE', #500, #815, #592, .T. ) ;
#920 = VECTOR ( 'NONE', #493, 1000.000000000000000 ) ;
#921 = PLANE ( 'NONE',  #215 ) ;
#922 = STYLED_ITEM ( 'NONE', ( #829 ), #778 ) ;
#923 = CYLINDRICAL_SURFACE ( 'NONE', #169, 0.04999999999999999584 ) ;
#924 = VERTEX_POINT ( 'NONE', #1083 ) ;
#925 = PRESENTATION_STYLE_ASSIGNMENT (( #1079 ) ) ;
#926 = CARTESIAN_POINT ( 'NONE',  ( 1.188540563483521995, -0.1750000000000000167, 0.1595235455183439399 ) ) ;
#927 = B_SPLINE_CURVE_WITH_KNOTS ( 'NONE', 3,
 ( #865, #486, #759, #677 ),
 .UNSPECIFIED., .F., .F.,
 ( 4, 4 ),
 ( 0.0000000000000000000, 1.000000000000000000 ),
 .UNSPECIFIED. ) ;
#928 = CARTESIAN_POINT ( 'NONE',  ( -1.083061337681495706, -0.1750000000000000167, 0.07904709108371341109 ) ) ;
#929 = EDGE_CURVE ( 'NONE', #427, #795, #746, .T. ) ;
#930 = SURFACE_STYLE_USAGE ( .BOTH. , #734 ) ;
#931 = CARTESIAN_POINT ( 'NONE',  ( 0.0000000000000000000, -0.1750000000000000167, 0.1200000000000000233 ) ) ;
#932 = ORIENTED_EDGE ( 'NONE', *, *, #965, .T. ) ;
#933 = LINE ( 'NONE', #462, #1008 ) ;
#934 =( NAMED_UNIT ( * ) PLANE_ANGLE_UNIT ( ) SI_UNIT ( $, .RADIAN. ) );
#935 = DIRECTION ( 'NONE',  ( -1.000000000000000000, -0.0000000000000000000, 0.0000000000000000000 ) ) ;
#936 = DIRECTION ( 'NONE',  ( 0.0000000000000000000, 0.0000000000000000000, 1.000000000000000000 ) ) ;
#937 = ORIENTED_EDGE ( 'NONE', *, *, #713, .T. ) ;
#938 = DIRECTION ( 'NONE',  ( -0.0000000000000000000, -1.000000000000000000, -0.0000000000000000000 ) ) ;
#939 = EDGE_CURVE ( 'NONE', #667, #910, #210, .T. ) ;
#940 = LINE ( 'NONE', #495, #76 ) ;
#941 = COLOUR_RGB ( '',0.1215686274509803905, 0.1215686274509803905, 0.1215686274509803905 ) ;
#942 = FACE_OUTER_BOUND ( 'NONE', #507, .T. ) ;
#943 = LINE ( 'NONE', #850, #917 ) ;
#944 = CARTESIAN_POINT ( 'NONE',  ( 0.8691584210000001809, 0.05833333333333334814, 0.8200000000000000622 ) ) ;
#945 = ORIENTED_EDGE ( 'NONE', *, *, #1026, .T. ) ;
#946 = VECTOR ( 'NONE', #350, 1000.000000000000000 ) ;
#947 = CARTESIAN_POINT ( 'NONE',  ( 1.046238627527648291, -0.1749999999999999889, 0.7397433322189698179 ) ) ;
#948 = EDGE_CURVE ( 'NONE', #422, #593, #116, .T. ) ;
#949 = DIRECTION ( 'NONE',  ( 0.0000000000000000000, 1.000000000000000000, 0.0000000000000000000 ) ) ;
#950 = PLANE ( 'NONE',  #95 ) ;
#951 = CARTESIAN_POINT ( 'NONE',  ( 0.9327446484603557630, 0.1750000000000000167, 0.6848043933267856653 ) ) ;
#952 = ORIENTED_EDGE ( 'NONE', *, *, #1026, .F. ) ;
#953 = DIRECTION ( 'NONE',  ( -0.2095290893580920577, 0.0000000000000000000, 0.9778024139430054884 ) ) ;
#954 = CARTESIAN_POINT ( 'NONE',  ( -0.3000000000000000444, 0.5750000000068719030, 1.102500000001717773 ) ) ;
#955 = ORIENTED_EDGE ( 'NONE', *, *, #448, .T. ) ;
#956 = DIRECTION ( 'NONE',  ( -0.9863939238321437486, 0.0000000000000000000, -0.1643989873053573747 ) ) ;
#957 = DIRECTION ( 'NONE',  ( -1.000000000000000000, -0.0000000000000000000, 0.0000000000000000000 ) ) ;
#958 = CARTESIAN_POINT ( 'NONE',  ( 1.083061337583877792, 0.1750000000000000167, 0.07904709106279525499 ) ) ;
#959 = DIRECTION ( 'NONE',  ( 0.0000000000000000000, 1.000000000000000000, 0.0000000000000000000 ) ) ;
#960 = EDGE_LOOP ( 'NONE', ( #900, #1144, #741, #91 ) ) ;
#961 = DIRECTION ( 'NONE',  ( 0.2095290895954797228, 0.0000000000000000000, 0.9778024138921366237 ) ) ;
#962 = B_SPLINE_CURVE_WITH_KNOTS ( 'NONE', 3,
 ( #680, #18, #1215, #102 ),
 .UNSPECIFIED., .F., .F.,
 ( 4, 4 ),
 ( 0.0000000000000000000, 1.000000000000000000 ),
 .UNSPECIFIED. ) ;
#963 = CARTESIAN_POINT ( 'NONE',  ( 1.300000000000000266, 0.0000000000000000000, 0.0000000000000000000 ) ) ;
#964 = AXIS2_PLACEMENT_3D ( 'NONE', #1073, #46, #602 ) ;
#965 = EDGE_CURVE ( 'NONE', #187, #415, #866, .T. ) ;
#966 = DIRECTION ( 'NONE',  ( 0.2095290893580920577, 0.0000000000000000000, -0.9778024139430054884 ) ) ;
#967 = STYLED_ITEM ( 'NONE', ( #543 ), #645 ) ;
#968 = ORIENTED_EDGE ( 'NONE', *, *, #779, .F. ) ;
#969 = AXIS2_PLACEMENT_3D ( 'NONE', #151, #710, #544 ) ;
#970 = CARTESIAN_POINT ( 'NONE',  ( -0.8000000000679099443, -0.5750000000137436285, 1.102500000020413262 ) ) ;
#971 = ORIENTED_EDGE ( 'NONE', *, *, #111, .F. ) ;
#972 = FILL_AREA_STYLE_COLOUR ( '', #570 ) ;
#973 = FILL_AREA_STYLE_COLOUR ( '', #787 ) ;
#974 = VERTEX_POINT ( 'NONE', #416 ) ;
#975 = DIRECTION ( 'NONE',  ( 1.000000000000000000, 0.0000000000000000000, 0.0000000000000000000 ) ) ;
#976 = VERTEX_POINT ( 'NONE', #761 ) ;
#977 = CARTESIAN_POINT ( 'NONE',  ( -0.8695544583778574976, -0.1749999999999999889, 0.8200990093116875546 ) ) ;
#978 = B_SPLINE_CURVE_WITH_KNOTS ( 'NONE', 3,
 ( #1175, #332, #1080, #228, #882, #506 ),
 .UNSPECIFIED., .F., .F.,
 ( 4, 2, 4 ),
 ( 0.0000000000000000000, 0.5000000000000004441, 1.000000000000000000 ),
 .UNSPECIFIED. ) ;
#979 = DIRECTION ( 'NONE',  ( 1.000000000000000000, 0.0000000000000000000, 0.0000000000000000000 ) ) ;
#980 = ORIENTED_EDGE ( 'NONE', *, *, #872, .T. ) ;
#981 = CARTESIAN_POINT ( 'NONE',  ( 0.9000000000000001332, -0.6750000000443878712, 0.6999999999926023175 ) ) ;
#982 = EDGE_LOOP ( 'NONE', ( #932, #1040, #402, #700, #1075, #662, #968, #1088 ) ) ;
#983 = EDGE_CURVE ( 'NONE', #976, #747, #776, .T. ) ;
#984 = FILL_AREA_STYLE ('',( #972 ) ) ;
#985 = PRODUCT ( 'User Library-SOD-323', 'User Library-SOD-323', '', ( #1081 ) ) ;
#986 = STYLED_ITEM ( 'NONE', ( #244 ), #247 ) ;
#987 = CARTESIAN_POINT ( 'NONE',  ( -0.6333333333333334147, 0.5750000000000000666, 1.104999999999999982 ) ) ;
#988 = ORIENTED_EDGE ( 'NONE', *, *, #796, .F. ) ;
#989 = LINE ( 'NONE', #515, #382 ) ;
#990 = AXIS2_PLACEMENT_3D ( 'NONE', #35, #112, #693 ) ;
#991 = PRODUCT_DEFINITION ( 'UNKNOWN', '', #256, #908 ) ;
#992 =( NAMED_UNIT ( * ) SI_UNIT ( $, .STERADIAN. ) SOLID_ANGLE_UNIT ( ) );
#993 = ORIENTED_EDGE ( 'NONE', *, *, #285, .T. ) ;
#994 = B_SPLINE_CURVE_WITH_KNOTS ( 'NONE', 3,
 ( #566, #1030, #743, #1039, #1048, #559 ),
 .UNSPECIFIED., .F., .F.,
 ( 4, 2, 4 ),
 ( 0.0000000000000000000, 0.5000000000000000000, 1.000000000000000000 ),
 .UNSPECIFIED. ) ;
#995 = FACE_OUTER_BOUND ( 'NONE', #203, .T. ) ;
#996 = ORIENTED_EDGE ( 'NONE', *, *, #404, .T. ) ;
#997 = CARTESIAN_POINT ( 'NONE',  ( 0.8000000000000000444, -0.5750000000412310852, 1.100000000006871925 ) ) ;
#998 = CYLINDRICAL_SURFACE ( 'NONE', #548, 0.09999999999806995221 ) ;
#999 = EDGE_CURVE ( 'NONE', #914, #1114, #678, .T. ) ;
#1000 = ORIENTED_EDGE ( 'NONE', *, *, #473, .T. ) ;
#1001 = UNCERTAINTY_MEASURE_WITH_UNIT (LENGTH_MEASURE( 1.000000000000000082E-05 ), #541, 'distance_accuracy_value', 'NONE');
#1002 = EDGE_CURVE ( 'NONE', #68, #815, #770, .T. ) ;
#1003 = CARTESIAN_POINT ( 'NONE',  ( -0.9595752919062938702, 0.1750000000000000167, 0.6553153044904392877 ) ) ;
#1004 = ORIENTED_EDGE ( 'NONE', *, *, #939, .F. ) ;
#1005 = DIRECTION ( 'NONE',  ( 0.0000000000000000000, -0.1643989873053573469, 0.9863939238321436376 ) ) ;
#1006 = CARTESIAN_POINT ( 'NONE',  ( 0.9669386623774103295, 0.0000000000000000000, 0.6209529088951593057 ) ) ;
#1007 =( GEOMETRIC_REPRESENTATION_CONTEXT ( 3 ) GLOBAL_UNCERTAINTY_ASSIGNED_CONTEXT ( ( #282 ) ) GLOBAL_UNIT_ASSIGNED_CONTEXT ( ( #1123, #7, #657 ) ) REPRESENTATION_CONTEXT ( 'NONE', 'WORKASPACE' ) );
#1008 = VECTOR ( 'NONE', #176, 1000.000000000000000 ) ;
#1009 = VERTEX_POINT ( 'NONE', #1157 ) ;
#1010 = CARTESIAN_POINT ( 'NONE',  ( -0.8000000001358199553, 0.5750000000068719030, 1.102500000035673056 ) ) ;
#1011 = ORIENTED_EDGE ( 'NONE', *, *, #308, .T. ) ;
#1012 = CARTESIAN_POINT ( 'NONE',  ( 1.135518145908400278, 0.1750000000000000167, -5.550519726199730450E-18 ) ) ;
#1013 = SURFACE_STYLE_USAGE ( .BOTH. , #1127 ) ;
#1014 = UNCERTAINTY_MEASURE_WITH_UNIT (LENGTH_MEASURE( 1.000000000000000082E-05 ), #372, 'distance_accuracy_value', 'NONE');
#1015 = CARTESIAN_POINT ( 'NONE',  ( 0.7999999999967120079, -0.5750000000295919511, 0.09999999999561599850 ) ) ;
#1016 = DIRECTION ( 'NONE',  ( 0.0000000000000000000, 1.000000000000000000, 0.0000000000000000000 ) ) ;
#1017 = CARTESIAN_POINT ( 'NONE',  ( 0.0000000000000000000, -0.5432432432876310724, -0.09054054054793857220 ) ) ;
#1018 = EDGE_CURVE ( 'NONE', #593, #312, #836, .T. ) ;
#1019 = SURFACE_STYLE_FILL_AREA ( #1191 ) ;
#1020 = B_SPLINE_CURVE_WITH_KNOTS ( 'NONE', 3,
 ( #611, #1077, #987, #1010 ),
 .UNSPECIFIED., .F., .F.,
 ( 4, 4 ),
 ( 0.0000000000000000000, 1.000000000000000000 ),
 .UNSPECIFIED. ) ;
#1021 =( NAMED_UNIT ( * ) SI_UNIT ( $, .STERADIAN. ) SOLID_ANGLE_UNIT ( ) );
#1022 =( LENGTH_UNIT ( ) NAMED_UNIT ( * ) SI_UNIT ( .MILLI., .METRE. ) );
#1023 = FACE_OUTER_BOUND ( 'NONE', #1059, .T. ) ;
#1024 =( NAMED_UNIT ( * ) PLANE_ANGLE_UNIT ( ) SI_UNIT ( $, .RADIAN. ) );
#1025 = VECTOR ( 'NONE', #301, 1000.000000000000227 ) ;
#1026 = EDGE_CURVE ( 'NONE', #976, #910, #1061, .T. ) ;
#1027 =( LENGTH_UNIT ( ) NAMED_UNIT ( * ) SI_UNIT ( .MILLI., .METRE. ) );
#1028 = DIRECTION ( 'NONE',  ( 1.000000000000000000, 0.0000000000000000000, -0.0000000000000000000 ) ) ;
#1029 = EDGE_LOOP ( 'NONE', ( #417, #156, #335, #1055 ) ) ;
#1030 = CARTESIAN_POINT ( 'NONE',  ( 0.9218222061321118543, 0.1750000000000000167, 0.8196220788558400416 ) ) ;
#1031 = CARTESIAN_POINT ( 'NONE',  ( -0.9686963342440200186, 0.1750000000000000167, 0.8024297463928090623 ) ) ;
#1032 = EDGE_CURVE ( 'NONE', #472, #125, #501, .T. ) ;
#1033 = CARTESIAN_POINT ( 'NONE',  ( -0.8799669973016659430, 0.1750000000000000167, 0.7801320124920698706 ) ) ;
#1034 = CARTESIAN_POINT ( 'NONE',  ( 0.0000000000000000000, -0.1750000000000000167, 0.1200000000000000233 ) ) ;
#1035 = SURFACE_STYLE_FILL_AREA ( #854 ) ;
#1036 = UNCERTAINTY_MEASURE_WITH_UNIT (LENGTH_MEASURE( 1.000000000000000082E-05 ), #208, 'distance_accuracy_value', 'NONE');
#1037 = CARTESIAN_POINT ( 'NONE',  ( 0.0000000000000000000, 0.0000000000000000000, 1.100000000000000089 ) ) ;
#1038 = EDGE_CURVE ( 'NONE', #415, #747, #1164, .T. ) ;
#1039 = CARTESIAN_POINT ( 'NONE',  ( 1.047412014671643243, 0.1749999999999999889, 0.7385275875277341751 ) ) ;
#1040 = ORIENTED_EDGE ( 'NONE', *, *, #906, .F. ) ;
#1041 = VECTOR ( 'NONE', #347, 1000.000000000000114 ) ;
#1042 = STYLED_ITEM ( 'NONE', ( #313 ), #420 ) ;
#1043 = PRESENTATION_STYLE_ASSIGNMENT (( #681 ) ) ;
#1044 = CARTESIAN_POINT ( 'NONE',  ( 1.180841579000000197, 0.1750000000000000167, -3.905194581339116455E-13 ) ) ;
#1045 = VECTOR ( 'NONE', #959, 1000.000000000000000 ) ;
#1046 = CARTESIAN_POINT ( 'NONE',  ( 0.0000000000000000000, 0.0000000000000000000, 0.0000000000000000000 ) ) ;
#1047 = ORIENTED_EDGE ( 'NONE', *, *, #146, .F. ) ;
#1048 = CARTESIAN_POINT ( 'NONE',  ( 1.073014505067018565, 0.1750000000000000444, 0.6968642075824593718 ) ) ;
#1049 = DIRECTION ( 'NONE',  ( 0.0000000000000000000, -1.000000000000000000, -0.0000000000000000000 ) ) ;
#1050 = ORIENTED_EDGE ( 'NONE', *, *, #430, .F. ) ;
#1051 = DIRECTION ( 'NONE',  ( 0.0000000000000000000, 1.000000000000000000, -0.0000000000000000000 ) ) ;
#1052 = CARTESIAN_POINT ( 'NONE',  ( 0.9669386623905509293, 0.1750000000000000167, 0.6209529088919512052 ) ) ;
#1053 = CARTESIAN_POINT ( 'NONE',  ( 0.9190141974309791184, -0.1750000000000000167, 0.8200000000000000622 ) ) ;
#1054 = CARTESIAN_POINT ( 'NONE',  ( 0.8899834988497121735, 0.1750000000000000167, 0.7400660062957549190 ) ) ;
#1055 = ORIENTED_EDGE ( 'NONE', *, *, #633, .T. ) ;
#1056 =( NAMED_UNIT ( * ) SI_UNIT ( $, .STERADIAN. ) SOLID_ANGLE_UNIT ( ) );
#1057 = ADVANCED_FACE ( 'NONE', ( #1070 ), #220, .F. ) ;
#1058 =( LENGTH_UNIT ( ) NAMED_UNIT ( * ) SI_UNIT ( .MILLI., .METRE. ) );
#1059 = EDGE_LOOP ( 'NONE', ( #243, #890, #505, #623 ) ) ;
#1060 = SURFACE_STYLE_FILL_AREA ( #1156 ) ;
#1061 = LINE ( 'NONE', #124, #1148 ) ;
#1062 = ORIENTED_EDGE ( 'NONE', *, *, #388, .F. ) ;
#1063 = DIRECTION ( 'NONE',  ( 0.0000000000000000000, -0.0000000000000000000, 1.000000000000000000 ) ) ;
#1064 = EDGE_CURVE ( 'NONE', #538, #312, #1020, .T. ) ;
#1065 = B_SPLINE_CURVE_WITH_KNOTS ( 'NONE', 3,
 ( #81, #192, #577, #642 ),
 .UNSPECIFIED., .F., .F.,
 ( 4, 4 ),
 ( 0.0000000000000000000, 1.000000000000000000 ),
 .UNSPECIFIED. ) ;
#1066 = CARTESIAN_POINT ( 'NONE',  ( 1.169043606278566072, 0.0000000000000000000, 0.2505093441598505444 ) ) ;
#1067 = STYLED_ITEM ( 'NONE', ( #497 ), #487 ) ;
#1068 = ORIENTED_EDGE ( 'NONE', *, *, #1207, .T. ) ;
#1069 = VECTOR ( 'NONE', #504, 1000.000000000000114 ) ;
#1070 = FACE_OUTER_BOUND ( 'NONE', #1194, .T. ) ;
#1071 = VECTOR ( 'NONE', #447, 1000.000000000000000 ) ;
#1072 = EDGE_LOOP ( 'NONE', ( #424, #860, #1181, #351 ) ) ;
#1073 = CARTESIAN_POINT ( 'NONE',  ( -1.011764706275403380, 0.0000000000000000000, 0.2529411765427783121 ) ) ;
#1074 = LINE ( 'NONE', #207, #421 ) ;
#1075 = ORIENTED_EDGE ( 'NONE', *, *, #929, .F. ) ;
#1076 = ADVANCED_FACE ( 'NONE', ( #695 ), #1196, .T. ) ;
#1077 = CARTESIAN_POINT ( 'NONE',  ( -0.4666666666666666741, 0.5750000000000000666, 1.104999999999999982 ) ) ;
#1078 = VERTEX_POINT ( 'NONE', #1193 ) ;
#1079 = SURFACE_STYLE_USAGE ( .BOTH. , #896 ) ;
#1080 = CARTESIAN_POINT ( 'NONE',  ( -0.9675229471601067832, -0.1750000000000000167, 0.8036454911719090877 ) ) ;
#1081 = PRODUCT_CONTEXT ( 'NONE', #72, 'mechanical' ) ;
#1082 = ADVANCED_FACE ( 'NONE', ( #797 ), #899, .F. ) ;
#1083 = CARTESIAN_POINT ( 'NONE',  ( -1.300000000000000266, -0.1750000000000000167, 0.1200000000000000233 ) ) ;
#1084 = EDGE_LOOP ( 'NONE', ( #793, #148, #10, #406 ) ) ;
#1085 = DIRECTION ( 'NONE',  ( -0.0000000000000000000, -1.000000000000000000, -0.0000000000000000000 ) ) ;
#1086 = VECTOR ( 'NONE', #159, 1000.000000000000000 ) ;
#1087 = CARTESIAN_POINT ( 'NONE',  ( 0.0000000000000000000, 0.0000000000000000000, 0.1200000000000000233 ) ) ;
#1088 = ORIENTED_EDGE ( 'NONE', *, *, #388, .T. ) ;
#1089 = AXIS2_PLACEMENT_3D ( 'NONE', #483, #956, #12 ) ;
#1090 = CARTESIAN_POINT ( 'NONE',  ( -1.180841579000000197, -0.1750000000000000167, 0.1000000000000000056 ) ) ;
#1091 = VECTOR ( 'NONE', #334, 1000.000000000000227 ) ;
#1092 = PRESENTATION_LAYER_ASSIGNMENT (  '', '', ( #1170 ) ) ;
#1093 = EDGE_CURVE ( 'NONE', #1106, #775, #719, .T. ) ;
#1094 = CARTESIAN_POINT ( 'NONE',  ( -0.9000000000000001332, -0.6750000000315298232, 0.7000000000078824280 ) ) ;
#1095 = ORIENTED_EDGE ( 'NONE', *, *, #34, .T. ) ;
#1096 = CARTESIAN_POINT ( 'NONE',  ( 0.0000000000000000000, 0.0000000000000000000, 0.0000000000000000000 ) ) ;
#1097 = VERTEX_POINT ( 'NONE', #166 ) ;
#1098 = DIRECTION ( 'NONE',  ( -0.0000000000000000000, 1.000000000000000000, 0.0000000000000000000 ) ) ;
#1099 = ADVANCED_FACE ( 'NONE', ( #355 ), #728, .T. ) ;
#1100 = FACE_OUTER_BOUND ( 'NONE', #298, .T. ) ;
#1101 = ORIENTED_EDGE ( 'NONE', *, *, #633, .F. ) ;
#1102 = FACE_OUTER_BOUND ( 'NONE', #446, .T. ) ;
#1103 = SURFACE_STYLE_USAGE ( .BOTH. , #547 ) ;
#1104 = UNCERTAINTY_MEASURE_WITH_UNIT (LENGTH_MEASURE( 1.000000000000000082E-05 ), #1022, 'distance_accuracy_value', 'NONE');
#1105 = LINE ( 'NONE', #63, #20 ) ;
#1106 = VERTEX_POINT ( 'NONE', #339 ) ;
#1107 = DIRECTION ( 'NONE',  ( 0.0000000000000000000, -0.9701425001512142821, 0.2425356250128035962 ) ) ;
#1108 = VECTOR ( 'NONE', #957, 1000.000000000000000 ) ;
#1109 = COLOUR_RGB ( '',0.1215686274509803905, 0.1215686274509803905, 0.1215686274509803905 ) ;
#1110 = VECTOR ( 'NONE', #935, 1000.000000000000000 ) ;
#1111 = FILL_AREA_STYLE_COLOUR ( '', #725 ) ;
#1112 = VECTOR ( 'NONE', #321, 1000.000000000000227 ) ;
#1113 = EDGE_CURVE ( 'NONE', #261, #1009, #1105, .T. ) ;
#1114 = VERTEX_POINT ( 'NONE', #618 ) ;
#1115 = DIRECTION ( 'NONE',  ( 0.0000000000000000000, 1.000000000000000000, -0.0000000000000000000 ) ) ;
#1116 = CARTESIAN_POINT ( 'NONE',  ( -0.8000000000679099443, -0.5750000000137436285, 1.102500000020413262 ) ) ;
#1117 = SURFACE_STYLE_USAGE ( .BOTH. , #1204 ) ;
#1118 = CARTESIAN_POINT ( 'NONE',  ( -1.188540563823750285, 0.1750000000000000167, 0.1595235455912500100 ) ) ;
#1119 = ORIENTED_EDGE ( 'NONE', *, *, #848, .T. ) ;
#1120 =( NAMED_UNIT ( * ) SI_UNIT ( $, .STERADIAN. ) SOLID_ANGLE_UNIT ( ) );
#1121 =( LENGTH_UNIT ( ) NAMED_UNIT ( * ) SI_UNIT ( .MILLI., .METRE. ) );
#1122 =( NAMED_UNIT ( * ) SI_UNIT ( $, .STERADIAN. ) SOLID_ANGLE_UNIT ( ) );
#1123 =( LENGTH_UNIT ( ) NAMED_UNIT ( * ) SI_UNIT ( .MILLI., .METRE. ) );
#1124 = ORIENTED_EDGE ( 'NONE', *, *, #103, .T. ) ;
#1125 = DIRECTION ( 'NONE',  ( -0.0000000000000000000, 1.000000000000000000, 0.0000000000000000000 ) ) ;
#1126 = VECTOR ( 'NONE', #395, 1000.000000000000000 ) ;
#1127 = SURFACE_SIDE_STYLE ('',( #258 ) ) ;
#1128 = VECTOR ( 'NONE', #52, 1000.000000000000227 ) ;
#1129 = ADVANCED_FACE ( 'NONE', ( #995 ), #803, .T. ) ;
#1130 = CARTESIAN_POINT ( 'NONE',  ( 0.8992286350577040066, 0.0000000000000000000, 0.6953718104070496508 ) ) ;
#1131 = CARTESIAN_POINT ( 'NONE',  ( -0.8899834988497121735, 0.1750000000000000167, 0.7400660062957549190 ) ) ;
#1132 = SURFACE_STYLE_FILL_AREA ( #457 ) ;
#1133 = CARTESIAN_POINT ( 'NONE',  ( -0.8899834988497121735, -0.1750000000000000167, 0.7400660062957549190 ) ) ;
#1134 = EDGE_CURVE ( 'NONE', #747, #667, #894, .T. ) ;
#1135 = LINE ( 'NONE', #461, #119 ) ;
#1136 = DIRECTION ( 'NONE',  ( 0.0000000000000000000, 1.000000000000000000, 0.0000000000000000000 ) ) ;
#1137 =( NAMED_UNIT ( * ) SI_UNIT ( $, .STERADIAN. ) SOLID_ANGLE_UNIT ( ) );
#1138 = CARTESIAN_POINT ( 'NONE',  ( -1.083061337681495706, -0.1750000000000000167, 0.07904709108371341109 ) ) ;
#1139 = CARTESIAN_POINT ( 'NONE',  ( 0.0000000000000000000, 0.0000000000000000000, 0.1200000000000000233 ) ) ;
#1140 = LINE ( 'NONE', #665, #1069 ) ;
#1141 = DIRECTION ( 'NONE',  ( 0.0000000000000000000, 0.2425356250128035684, -0.9701425001512141710 ) ) ;
#1142 = VERTEX_POINT ( 'NONE', #634 ) ;
#1143 = LINE ( 'NONE', #852, #789 ) ;
#1144 = ORIENTED_EDGE ( 'NONE', *, *, #887, .T. ) ;
#1145 = STYLED_ITEM ( 'NONE', ( #460 ), #599 ) ;
#1146 = LINE ( 'NONE', #766, #760 ) ;
#1147 = CARTESIAN_POINT ( 'NONE',  ( 1.237430683998515635, -0.1750000000000000167, 0.1199999999998047490 ) ) ;
#1148 = VECTOR ( 'NONE', #29, 1000.000000000000000 ) ;
#1149 = CARTESIAN_POINT ( 'NONE',  ( -1.092557915632438315, -0.1750000000000000167, 0.03472972902355953712 ) ) ;
#1150 = EDGE_CURVE ( 'NONE', #1009, #630, #438, .T. ) ;
#1151 = LINE ( 'NONE', #135, #726 ) ;
#1152 = ORIENTED_EDGE ( 'NONE', *, *, #1093, .F. ) ;
#1153 =( NAMED_UNIT ( * ) SI_UNIT ( $, .STERADIAN. ) SOLID_ANGLE_UNIT ( ) );
#1154 = CARTESIAN_POINT ( 'NONE',  ( 0.8996143177414637204, -0.1750000000000000167, 0.6976859052556582119 ) ) ;
#1155 = ORIENTED_EDGE ( 'NONE', *, *, #354, .F. ) ;
#1156 = FILL_AREA_STYLE ('',( #92 ) ) ;
#1157 = CARTESIAN_POINT ( 'NONE',  ( 1.300000000000000266, 0.1750000000000000167, 0.1200000000000000233 ) ) ;
#1158 = ORIENTED_EDGE ( 'NONE', *, *, #1176, .T. ) ;
#1159 = EDGE_CURVE ( 'NONE', #1114, #68, #300, .T. ) ;
#1160 = DIRECTION ( 'NONE',  ( -1.000000000000000000, -0.0000000000000000000, 0.0000000000000000000 ) ) ;
#1161 = DIRECTION ( 'NONE',  ( -1.000000000000000000, 0.0000000000000000000, -0.0000000000000000000 ) ) ;
#1162 = CARTESIAN_POINT ( 'NONE',  ( -1.237430683999999781, -0.1750000000000000167, 0.1200000001739759820 ) ) ;
#1163 = ORIENTED_EDGE ( 'NONE', *, *, #685, .F. ) ;
#1164 = LINE ( 'NONE', #981, #1112 ) ;
#1165 = ORIENTED_EDGE ( 'NONE', *, *, #171, .T. ) ;
#1166 = PRODUCT_DEFINITION_SHAPE ( 'NONE', 'NONE',  #991 ) ;
#1167 = ADVANCED_FACE ( 'NONE', ( #1100 ), #923, .F. ) ;
#1168 =( NAMED_UNIT ( * ) PLANE_ANGLE_UNIT ( ) SI_UNIT ( $, .RADIAN. ) );
#1169 = EDGE_LOOP ( 'NONE', ( #771, #587, #1068, #293 ) ) ;
#1170 = STYLED_ITEM ( 'NONE', ( #812 ), #1076 ) ;
#1171 = DIRECTION ( 'NONE',  ( -0.0000000000000000000, -1.000000000000000000, -0.0000000000000000000 ) ) ;
#1172 = VECTOR ( 'NONE', #294, 1000.000000000000000 ) ;
#1173 = ORIENTED_EDGE ( 'NONE', *, *, #779, .T. ) ;
#1174 =( LENGTH_UNIT ( ) NAMED_UNIT ( * ) SI_UNIT ( .MILLI., .METRE. ) );
#1175 = CARTESIAN_POINT ( 'NONE',  ( -0.8695544583778574976, -0.1749999999999999889, 0.8200990093116875546 ) ) ;
#1176 = EDGE_CURVE ( 'NONE', #974, #976, #179, .T. ) ;
#1177 = DIRECTION ( 'NONE',  ( 0.0000000000000000000, 1.000000000000000000, -0.0000000000000000000 ) ) ;
#1178 = VERTEX_POINT ( 'NONE', #1118 ) ;
#1179 = CARTESIAN_POINT ( 'NONE',  ( -0.3000000000000000444, -0.1916666666666667074, 1.100000000000000089 ) ) ;
#1180 = DIRECTION ( 'NONE',  ( 0.0000000000000000000, 0.0000000000000000000, 1.000000000000000000 ) ) ;
#1181 = ORIENTED_EDGE ( 'NONE', *, *, #516, .T. ) ;
#1182 = FILL_AREA_STYLE ('',( #878 ) ) ;
#1183 = VECTOR ( 'NONE', #368, 1000.000000000000000 ) ;
#1184 = ORIENTED_EDGE ( 'NONE', *, *, #146, .T. ) ;
#1185 = VECTOR ( 'NONE', #97, 1000.000000000000227 ) ;
#1186 = EDGE_CURVE ( 'NONE', #502, #261, #557, .T. ) ;
#1187 = FACE_OUTER_BOUND ( 'NONE', #1169, .T. ) ;
#1188 = DIRECTION ( 'NONE',  ( -0.9778024140847265677, 0.0000000000000000000, -0.2095290886967271504 ) ) ;
#1189 = DIRECTION ( 'NONE',  ( -1.000000000000000000, -0.0000000000000000000, 0.0000000000000000000 ) ) ;
#1190 = EDGE_LOOP ( 'NONE', ( #1095, #42, #937, #1184 ) ) ;
#1191 = FILL_AREA_STYLE ('',( #358 ) ) ;
#1192 = ORIENTED_EDGE ( 'NONE', *, *, #317, .F. ) ;
#1193 = CARTESIAN_POINT ( 'NONE',  ( -1.300000000000000266, -0.1750000000000000167, 0.0000000000000000000 ) ) ;
#1194 = EDGE_LOOP ( 'NONE', ( #639, #437, #551, #32 ) ) ;
#1195 = CARTESIAN_POINT ( 'NONE',  ( -0.0000000000000000000, 0.6750000000315298232, 0.7000000000078824280 ) ) ;
#1196 = PLANE ( 'NONE',  #969 ) ;
#1197 = EDGE_LOOP ( 'NONE', ( #514, #253, #209, #1173, #134 ) ) ;
#1198 = PLANE ( 'NONE',  #742 ) ;
#1199 = VECTOR ( 'NONE', #480, 1000.000000000000000 ) ;
#1200 = CARTESIAN_POINT ( 'NONE',  ( -1.193288852795429511, 0.1750000000000000167, 0.1373648647963891800 ) ) ;
#1201 = CARTESIAN_POINT ( 'NONE',  ( -1.084274952024330663, 0.1750000000000000167, 0.6460963995048565334 ) ) ;
#1202 = EDGE_CURVE ( 'NONE', #322, #512, #265, .T. ) ;
#1203 = DIRECTION ( 'NONE',  ( -0.1622214211307627663, -0.1622214211307625720, -0.9733285267845751543 ) ) ;
#1204 = SURFACE_SIDE_STYLE ('',( #730 ) ) ;
#1205 = EDGE_LOOP ( 'NONE', ( #952, #128, #74, #17 ) ) ;
#1206 = FACE_OUTER_BOUND ( 'NONE', #15, .T. ) ;
#1207 = EDGE_CURVE ( 'NONE', #512, #914, #1065, .T. ) ;
#1208 =( NAMED_UNIT ( * ) PLANE_ANGLE_UNIT ( ) SI_UNIT ( $, .RADIAN. ) );
#1209 = LINE ( 'NONE', #656, #902 ) ;
#1210 = CARTESIAN_POINT ( 'NONE',  ( -0.8695544583768102243, 0.1750000000000000444, 0.8200990093111149015 ) ) ;
#1211 = FILL_AREA_STYLE_COLOUR ( '', #764 ) ;
#1212 = EDGE_LOOP ( 'NONE', ( #117, #757, #523, #362, #824 ) ) ;
#1213 = DIRECTION ( 'NONE',  ( -0.9778024140847265677, 0.0000000000000000000, 0.2095290886967271504 ) ) ;
#1214 = EDGE_CURVE ( 'NONE', #795, #266, #561, .T. ) ;
#1215 = CARTESIAN_POINT ( 'NONE',  ( 0.9327446484603557630, -0.1750000000000000167, 0.6848043933267856653 ) ) ;
#1216 = AXIS2_PLACEMENT_3D ( 'NONE', #5, #389, #259 ) ;
#1217 = AXIS2_PLACEMENT_3D ( 'NONE', #336, #137, #51 ) ;
#1218 = DIRECTION ( 'NONE',  ( 0.0000000000000000000, 0.0000000000000000000, 1.000000000000000000 ) ) ;
#1219 = FACE_OUTER_BOUND ( 'NONE', #197, .T. ) ;
ENDSEC;
END-ISO-10303-21;
